<svg xmlns="http://www.w3.org/2000/svg" version="1.1" xmlns:xlink="http://www.w3.org/1999/xlink" xmlns:svgjs="http://svgjs.dev/svgjs" viewBox="0 0 800 800" opacity="0.35"><defs><linearGradient x1="50%" y1="0%" x2="50%" y2="100%" id="ccchaos-grad"><stop stop-color="#fff" stop-opacity="1" offset="0%"></stop><stop stop-color="#61dafb" stop-opacity="1" offset="100%"></stop></linearGradient></defs><g stroke-width="3" stroke="url(#ccchaos-grad)" fill="none" stroke-linecap="round"><path d="M387.49 -232.99C398.17 -232.95 408.71 -232.97 419.11 -233.04 429.51 -233.38 439.78 -233.63 449.89 -233.73 460.01 -233.83 469.99 -233.58 479.84 -232.9 489.69 -231.97 499.42 -230.48 509.04 -228.41 518.69 -225.99 528.25 -223.01 537.74 -219.5 547.3 -215.78 556.81 -211.68 566.32 -207.3 575.94 -202.96 585.59 -198.51 595.31 -194.04 605.19 -189.85 615.18 -185.74 625.32 -181.76 635.67 -178.12 646.2 -174.59 656.94 -171.11 667.92 -167.88 679.13 -164.57 690.56 -161.11 702.21 -157.66 714.07 -153.89 726.09 -149.73 738.25 -145.33 750.5 -140.43 762.77 -135 775.01 -129.21 787.12 -122.88 799 -116.03 810.6 -108.86 821.78 -101.26 832.41 -93.29 842.5 -85.18 851.83 -76.84 860.31 -68.35 868.02 -59.93 874.73 -51.5 880.39 -43.1 885.21 -34.95 888.98 -26.91 891.72 -19.01 893.8 -11.43 895.04 -4 895.59 3.3 895.92 10.31 895.93 17.23 895.83 24.12 896.16 30.81 896.85 37.54 898.14 44.35 900.5 51.08 903.85 57.99 908.35 65.09 914.28 72.23 921.5 79.63 929.98 87.32 939.76 95.11 950.55 103.22 962.11 111.63 974.28 120.2 986.59 129.08 998.67 138.24 1010.27 147.57 1020.87 157.17 1030.08 167 1037.77 176.98 1043.5 187.17 1047.07 197.55 1048.65 208.03 1048.02 218.67 1045.3 229.42 1041.04 240.25 1035.26 251.18 1028.38 262.17 1021.23 273.21 1013.99 284.3 1007.2 295.4 1001.66 306.54 997.51 317.68 995.11 328.8 994.99 339.93 996.97 351.04 1001.03 362.09 1007.23 373.16 1015 384.16 1023.92 395.09 1033.64 406.02 1043.23 416.73 1052.09 427.22 1059.97 437.7 1066.04 447.96 1069.94 457.98 1071.69 468 1070.87 477.78 1067.5 487.33 1061.98 496.88 1054.32 506.2 1044.92 515.32 1034.39 524.45 1023.04 533.39 1011.38 542.16 1000.07 550.99 989.39 559.7 979.73 568.32 971.57 577.06 964.96 585.78 959.99 594.52 956.91 603.47 955.42 612.53 955.33 621.75 956.67 631.28 958.89 641.05 961.64 651.11 964.87 661.56 967.93 672.35 970.46 683.52 972.49 695.07 973.43 706.99 973.08 719.25 971.56 731.79 968.49 744.56 963.86 757.47 957.9 770.42 950.47 783.29 941.71 795.94 931.91 808.25 921.11 820.03 909.53 831.12 897.44 841.45 884.97 850.79 872.34 859 859.77 866.16 847.37 872.05 835.28 876.61 823.68 880.15 812.6 882.49 802.08 883.75 792.24 884.45 783.02 884.5 774.38 884.19 766.42 884.15 758.97 884.37 751.94 885.2 745.45 887.21 739.25 890.41 733.23 895 727.55 901.33 721.91 909.24 716.22 918.68 710.67 929.62 704.94 941.66 698.98 954.44 693.01 967.62 686.72 980.61 680.08 992.86 673.34 1003.99 666.21 1013.4 658.7 1020.67 651.04 1025.73 643 1028.23 634.59 1028.17 626.03 1026.02 617.12 1021.85 607.88 1016.12 598.53 1009.79 588.88 1003.21 578.98 997.1 568.98 992.44 558.75 989.52 548.33 988.82 537.85 990.85 527.19 995.44 516.39 1002.42 505.55 1011.62 494.59 1022.24 483.52 1033.54 472.44 1044.87 461.26 1055.17 450 1063.6 438.74 1069.69 427.4 1072.69 415.99 1072.31 404.59 1068.83 393.25 1062.32 381.98 1053.38 370.72 1042.98 359.52 1031.75 348.39 1020.6 337.26 1010.56 326.19 1002.14 315.19 995.9 304.18 992.39 293.23 991.48 282.34 993.03 271.44 996.99 260.6 1002.54 249.83 1009.04 239.05 1016.09 228.33 1022.64 217.68 1028 207.03 1031.91 196.46 1033.58 185.98 1032.74 175.51 1029.51 165.15 1023.68 154.9 1015.5 144.68 1005.45 134.6 993.83 124.67 981.18 114.8 968.14 105.1 955.15 95.58 942.72 86.15 931.36 76.92 921.31 67.9 912.78 58.97 906.06 50.26 900.99 41.78 897.44 33.38 895.47 25.2 894.58 17.22 894.45 9.3 895.03 1.57 895.68 -5.98 896.05 -13.54 896.14 -20.96 895.37 -28.25 893.52 -35.59 890.72 -42.84 886.55 -50.01 881.01 -57.27 874.29 -64.45 866.25 -71.55 857.01 -78.74 846.82 -85.84 835.69 -92.8 823.84 -99.8 811.46 -106.63 798.7 -113.24 785.72 -119.79 772.69 -126.05 759.73 -131.99 746.96 -137.78 734.47 -143.2 722.34 -148.21 710.6 -153.04 699.32 -157.47 688.48 -161.51 678.05 -165.42 668.1 -169.01 658.52 -172.33 649.25 -175.66 640.38 -178.84 631.73 -181.94 623.24 -185.22 615.03 -188.54 606.87 -191.92 598.71 -195.61 590.71 -199.42 582.62 -203.33 574.41 -207.53 566.27 -211.75 557.95 -215.92 549.41 -220.2 540.9 -224.25 532.14 -227.97 523.13 -231.5 514.12 -234.52 504.84 -236.93 495.3 -238.92 485.74 -240.21 475.92 -240.78 465.84 -240.92 455.75 -240.41 445.42 -239.3 434.85 -238 424.27 -236.33 413.46 -234.41 402.43 -232.65 391.41 -230.89 380.3 -229.24 369.13 -228.01 357.96 -226.99 346.74 -226.17 335.48 -225.79 324.23 -225.54 312.95 -225.34 301.65 -225.36 290.37 -225.24 279.1 -224.87 267.83 -224.41 256.6 -223.52 245.41 -222.11 234.27 -220.4 223.19 -218.08 212.2 -215.15 201.31 -211.87 190.52 -208.02 179.87 -203.66 169.4 -199.07 159.06 -194.08 148.92 -188.79 139.03 -183.48 129.32 -177.99 119.87 -172.4 110.73 -166.96 101.78 -161.49 93.15 -156.04 84.86 -150.8 76.75 -145.57 68.96 -140.35 61.5 -135.3 54.17 -130.2 47.11 -125.01 40.31 -119.9 33.54 -114.62 26.95 -109.14 20.5 -103.63 13.94 -97.87 7.43 -91.82 0.91 -85.69 -5.83 -79.25 -12.66 -72.53 -19.61 -65.7 -26.88 -58.6 -34.3 -51.24 -41.87 -43.82 -49.75 -36.19 -57.75 -28.36 -65.82 -20.54 -74.09 -12.58 -82.32 -4.49 -90.45 3.54 -98.57 11.66 -106.44 19.87 -113.98 27.99 -121.29 36.18 -128.15 44.43 -134.5 52.6 -140.5 60.84 -145.95 69.15 -150.84 77.39 -155.42 85.72 -159.51 94.16 -163.18 102.55 -166.71 111.07 -169.97 119.71 -173.03 128.34 -176.21 137.12 -179.36 146.05 -182.55 154.99 -186.05 164.09 -189.65 173.34 -193.38 182.63 -197.44 192.08 -201.56 201.67 -205.68 211.31 -209.96 221.09 -214.09 231 -217.96 240.95 -221.72 251.03 -225.05 261.22 -227.88 271.45 -230.4 281.77 -232.34 292.17 -233.68 302.6 -234.7 313.11 -235.2 323.66 -235.23 334.23 -235.14 344.85 -234.77 355.49 -234.2 366.14 -233.81 376.81 -233.38 387.48 -232.99" stroke-dasharray="4 0" transform="rotate(0, 400, 400)" opacity="1.00"></path><path d="M384.1 -207.89C394.28 -207.83 404.39 -207.88 414.42 -208 424.45 -208.42 434.4 -208.79 444.29 -209.03 454.18 -209.31 464.02 -209.26 473.79 -208.81 483.59 -208.12 493.35 -206.87 503.09 -205.05 512.87 -202.87 522.65 -200.09 532.44 -196.77 542.31 -193.18 552.22 -189.17 562.19 -184.82 572.28 -180.45 582.46 -175.92 592.74 -171.32 603.17 -166.95 613.74 -162.66 624.45 -158.47 635.31 -154.65 646.33 -150.96 657.49 -147.39 668.79 -144.13 680.21 -140.89 691.73 -137.61 703.33 -134.43 714.96 -131.05 726.57 -127.4 738.13 -123.62 749.56 -119.41 760.79 -114.74 771.79 -109.76 782.45 -104.25 792.66 -98.21 802.43 -91.82 811.62 -84.93 820.11 -77.59 827.99 -69.99 835.07 -62.04 841.28 -53.81 846.79 -45.51 851.41 -37.05 855.13 -28.5 858.24 -20.07 860.55 -11.65 862.14 -3.3 863.42 4.8 864.23 12.79 864.74 20.64 865.39 28.2 866.1 35.64 867.06 42.96 868.71 50.01 870.98 57 874.04 63.95 878.24 70.71 883.46 77.5 889.78 84.36 897.36 91.13 906.01 98.03 915.63 105.09 926.2 112.15 937.38 119.41 948.94 126.91 960.69 134.46 972.22 142.26 983.17 150.31 993.36 158.46 1002.34 166.87 1009.82 175.51 1015.75 184.27 1019.79 193.26 1021.81 202.46 1022.08 211.75 1020.43 221.24 1017 230.9 1012.37 240.64 1006.56 250.52 999.97 260.52 993.34 270.58 986.83 280.73 980.87 290.96 976.19 301.23 972.86 311.55 971.16 321.9 971.53 332.27 973.8 342.66 977.91 353.05 983.92 363.45 991.32 373.84 999.72 384.2 1008.84 394.56 1017.86 404.77 1026.22 414.83 1033.77 424.88 1039.73 434.78 1043.76 444.52 1045.91 454.27 1045.74 463.88 1043.25 473.36 1038.76 482.86 1032.23 492.25 1023.97 501.55 1014.5 510.9 1004.06 520.2 993.09 529.47 982.16 538.84 971.53 548.22 961.58 557.66 952.78 567.25 945.2 576.95 939.02 586.79 934.49 596.85 931.43 607.1 929.74 617.57 929.53 628.3 930.34 639.27 931.92 650.5 934.26 661.97 936.8 673.68 939.22 685.61 941.55 697.69 943.21 709.9 943.98 722.17 943.95 734.4 942.68 746.54 940.1 758.45 936.39 770.07 931.29 781.24 924.88 791.85 917.39 801.84 908.75 811.04 899.13 819.33 888.78 826.77 877.74 833.16 866.2 838.44 854.39 842.85 842.39 846.2 830.38 848.55 818.51 850.29 806.85 851.32 795.51 851.81 784.61 852.3 774.14 852.72 764.13 853.36 754.68 854.74 745.7 856.85 737.17 859.93 729.18 864.38 721.56 870.11 714.26 877.21 707.38 885.82 700.72 895.69 694.18 906.66 687.93 918.56 681.69 930.97 675.42 943.5 669.29 955.82 663.02 967.39 656.57 977.75 650.15 986.66 643.49 993.65 636.57 998.46 629.6 1001.18 622.33 1001.61 614.76 999.86 607.12 996.51 599.16 991.67 590.9 985.84 582.56 979.9 573.93 974.16 565.02 969.21 556.03 965.91 546.79 964.41 537.3 965.05 527.76 968.21 518.01 973.63 508.05 981.09 498.05 990.39 487.87 1000.77 477.53 1011.55 467.16 1022.18 456.65 1031.71 445.99 1039.42 435.33 1044.95 424.54 1047.63 413.63 1047.21 402.72 1043.97 391.83 1037.95 380.96 1029.67 370.1 1019.97 359.26 1009.38 348.46 998.7 337.67 988.85 326.91 980.31 316.19 973.59 305.48 969.25 294.81 967.25 284.2 967.54 273.59 970.16 263.04 974.48 252.56 979.95 242.09 986.32 231.69 992.64 221.38 998.28 211.09 1003 200.9 1005.99 190.81 1006.91 180.77 1005.79 170.85 1002.28 161.06 996.46 151.34 988.7 141.77 979.1 132.36 968.07 123.04 956.17 113.9 943.72 104.94 931.22 96.08 919.17 87.42 907.86 78.96 897.6 70.59 888.72 62.42 881.24 54.45 875.2 46.55 870.73 38.84 867.53 31.3 865.41 23.8 864.39 16.44 863.96 9.23 863.81 2 863.97 -5.1 863.86 -12.11 863.23 -19.19 862.16 -26.17 860.17 -33.08 857.14 -40.06 853.23 -46.96 848.14 -53.77 841.87 -60.63 834.65 -67.38 826.35 -73.98 817.08 -80.59 807.06 -87.01 796.3 -93.19 784.96 -99.31 773.2 -105.15 761.11 -110.69 748.84 -116.09 736.48 -121.16 724.14 -125.88 711.91 -130.46 699.85 -134.71 688.01 -138.64 676.45 -142.5 665.19 -146.11 654.23 -149.51 643.58 -152.96 633.25 -156.29 623.19 -159.55 613.39 -162.99 603.87 -166.45 594.53 -169.94 585.34 -173.68 576.36 -177.48 567.45 -181.3 558.58 -185.33 549.85 -189.31 541.09 -193.19 532.27 -197.1 523.53 -200.77 514.68 -204.09 505.69 -207.23 496.75 -209.88 487.64 -211.98 478.37 -213.75 469.1 -214.89 459.64 -215.4 449.99 -215.58 440.34 -215.19 430.49 -214.29 420.44 -213.23 410.39 -211.84 400.15 -210.21 389.71 -208.71 379.28 -207.17 368.78 -205.68 358.25 -204.53 347.72 -203.5 337.15 -202.6 326.58 -202.07 316.02 -201.61 305.46 -201.18 294.93 -200.95 284.42 -200.6 273.96 -200.04 263.56 -199.44 253.21 -198.48 242.95 -197.1 232.8 -195.49 222.74 -193.37 212.8 -190.73 203.04 -187.8 193.38 -184.36 183.91 -180.45 174.67 -176.32 165.55 -171.81 156.67 -166.98 148.05 -162.08 139.57 -156.97 131.36 -151.69 123.43 -146.5 115.63 -141.23 108.09 -135.91 100.83 -130.75 93.64 -125.56 86.68 -120.34 79.94 -115.28 73.18 -110.15 66.58 -104.95 60.1 -99.83 53.5 -94.57 46.95 -89.15 40.4 -83.73 33.63 -78.1 26.8 -72.23 19.87 -66.3 12.65 -60.1 5.29 -53.65 -2.2 -47.11 -10 -40.31 -17.92 -33.27 -25.94 -26.16 -34.17 -18.83 -42.43 -11.31 -50.65 -3.77 -58.92 3.93 -67.02 11.77 -74.9 19.58 -82.61 27.5 -89.97 35.51 -96.89 43.45 -103.51 51.46 -109.62 59.54 -115.19 67.53 -120.41 75.59 -125.1 83.7 -129.29 91.73 -133.23 99.83 -136.78 108 -140 116.1 -143.2 124.29 -146.23 132.57 -149.16 140.81 -152.32 149.16 -155.52 157.63 -158.82 166.07 -162.47 174.64 -166.25 183.34 -170.17 192.04 -174.39 200.87 -178.65 209.84 -182.89 218.82 -187.22 227.94 -191.35 237.18 -195.18 246.44 -198.84 255.83 -202.03 265.33 -204.69 274.85 -207.01 284.49 -208.73 294.22 -209.85 303.96 -210.65 313.8 -210.93 323.72 -210.77 333.65 -210.51 343.66 -209.99 353.72 -209.3 363.79 -208.81 373.92 -208.32 384.1 -207.89" stroke-dasharray="10 9" transform="rotate(4.12, 400, 400)" opacity="0.96"></path><path d="M385.52 -182.79C395.32 -182.72 405.11 -182.78 414.88 -182.94 424.65 -183.42 434.42 -183.89 444.17 -184.26 453.94 -184.69 463.71 -184.83 473.49 -184.59 483.31 -184.14 493.14 -183.16 503.01 -181.61 512.92 -179.69 522.89 -177.17 532.92 -174.09 543.01 -170.69 553.18 -166.83 563.44 -162.58 573.78 -158.23 584.21 -153.67 594.74 -148.99 605.36 -144.47 616.08 -139.99 626.88 -135.59 637.75 -131.53 648.68 -127.62 659.66 -123.86 670.65 -120.44 681.63 -117.13 692.55 -113.86 703.4 -110.8 714.12 -107.66 724.64 -104.36 734.96 -101.04 744.98 -97.41 754.62 -93.43 763.91 -89.21 772.72 -84.53 780.96 -79.36 788.73 -73.86 795.83 -67.84 802.22 -61.33 808.07 -54.5 813.16 -47.23 817.49 -39.58 821.3 -31.72 824.41 -23.59 826.86 -15.23 828.98 -6.84 830.6 1.65 831.84 10.2 833.08 18.64 834.2 27.04 835.34 35.37 836.93 43.49 838.84 51.49 841.24 59.38 844.49 67.01 848.48 74.54 853.32 81.96 859.25 89.14 866.11 96.26 873.91 103.35 882.72 110.26 892.32 117.18 902.57 124.15 913.39 131 924.48 137.96 935.56 145.03 946.5 152.06 956.9 159.24 966.47 166.61 975.1 173.97 982.4 181.54 988.17 189.31 992.44 197.11 994.94 205.12 995.62 213.34 994.8 221.6 992.35 230.07 988.44 238.72 983.63 247.42 977.95 256.29 971.76 265.33 965.73 274.41 959.97 283.63 954.84 292.98 950.99 302.35 948.41 311.84 947.34 321.43 948.16 331.03 950.66 340.72 954.8 350.49 960.61 360.26 967.63 370.09 975.52 379.99 984.07 389.88 992.51 399.72 1000.4 409.49 1007.59 419.27 1013.41 429 1017.53 438.68 1020 448.37 1020.4 458.03 1018.7 467.67 1015.17 477.35 1009.71 487.02 1002.56 496.72 994.18 506.48 984.72 516.3 974.54 526.18 964.18 536.16 953.83 546.24 943.85 556.44 934.68 566.78 926.43 577.26 919.28 587.9 913.54 598.68 909.09 609.63 905.91 620.75 904.15 631.98 903.47 643.36 903.69 654.84 904.87 666.36 906.51 677.93 908.36 689.48 910.46 700.93 912.27 712.24 913.58 723.32 914.46 734.12 914.45 744.53 913.43 754.43 911.55 763.84 908.49 772.59 904.23 780.59 898.99 787.92 892.59 794.38 885.14 799.93 876.85 804.78 867.7 808.73 857.82 811.8 847.43 814.35 836.57 816.2 825.39 817.5 814.06 818.67 802.64 819.63 791.26 820.57 780.03 821.97 769 823.78 758.24 826.2 747.83 829.65 737.76 834.06 728.06 839.56 718.78 846.37 709.87 854.35 701.29 863.46 693.12 873.68 685.24 884.72 677.59 896.34 670.28 908.32 663.13 920.25 656.08 931.75 649.26 942.55 642.46 952.2 635.64 960.34 628.95 966.89 622.16 971.48 615.26 974 608.4 974.7 601.36 973.45 594.13 970.47 586.9 966.38 579.45 961.32 571.76 955.75 564.03 950.5 556.07 945.79 547.86 942.13 539.61 940.19 531.12 940.05 522.39 941.91 513.63 946.04 504.64 952.13 495.43 959.92 486.2 969.19 476.76 979.25 467.13 989.47 457.48 999.39 447.65 1008.17 437.64 1015.19 427.63 1020.18 417.46 1022.56 407.15 1022.1 396.83 1019.1 386.49 1013.55 376.15 1005.89 365.81 996.88 355.48 986.94 345.16 976.77 334.85 967.19 324.56 958.61 314.3 951.54 304.06 946.52 293.85 943.56 283.69 942.68 273.57 944.02 263.49 947.06 253.49 951.41 243.52 956.9 233.64 962.7 223.85 968.26 214.1 973.38 204.47 977.27 194.95 979.55 185.5 980.2 176.18 978.76 167.01 975.2 157.92 969.77 148.98 962.4 140.21 953.38 131.53 943.15 123.03 931.92 114.71 920.12 106.47 908.21 98.42 896.48 90.55 885.25 82.75 874.91 75.13 865.58 67.68 857.39 60.27 850.56 53.01 844.97 45.9 840.54 38.79 837.36 31.8 835.08 24.94 833.48 18.02 832.62 11.21 831.99 4.48 831.38 -2.3 830.84 -9.02 829.89 -15.65 828.34 -22.35 826.34 -28.96 823.49 -35.47 819.7 -42.02 815.18 -48.43 809.65 -54.69 803.16 -60.94 795.9 -66.99 787.75 -72.82 778.82 -78.58 769.28 -84.08 759.13 -89.29 748.49 -94.41 737.48 -99.23 726.17 -103.74 714.66 -108.17 703.02 -112.31 691.34 -116.19 679.69 -120.04 668.1 -123.69 656.63 -127.17 645.32 -130.71 634.18 -134.15 623.23 -137.52 612.49 -141.05 601.94 -144.57 591.59 -148.07 581.43 -151.78 571.45 -155.47 561.62 -159.14 551.92 -162.95 542.36 -166.65 532.89 -170.2 523.48 -173.76 514.16 -177.05 504.86 -179.99 495.56 -182.78 486.31 -185.12 477.03 -186.96 467.68 -188.53 458.37 -189.56 448.98 -190.05 439.49 -190.28 430.01 -190.02 420.43 -189.32 410.74 -188.5 401.05 -187.37 391.25 -186.01 381.34 -184.76 371.43 -183.43 361.53 -182.09 351.65 -181.03 341.77 -180.02 331.93 -179.07 322.13 -178.42 312.35 -177.8 302.63 -177.17 292.99 -176.73 283.38 -176.16 273.87 -175.41 264.47 -174.66 255.12 -173.61 245.91 -172.2 236.86 -170.64 227.87 -168.65 219.06 -166.21 210.44 -163.55 201.89 -160.45 193.56 -156.92 185.45 -153.21 177.41 -149.13 169.6 -144.72 162.02 -140.24 154.5 -135.53 147.2 -130.61 140.11 -125.74 133.04 -120.74 126.16 -115.64 119.44 -110.66 112.67 -105.61 106.03 -100.5 99.47 -95.5 92.78 -90.44 86.13 -85.29 79.48 -80.22 72.62 -75.03 65.7 -69.7 58.7 -64.38 51.43 -58.87 44.05 -53.16 36.55 -47.41 28.77 -41.43 20.88 -35.21 12.88 -28.92 4.68 -22.4 -3.55 -15.63 -11.8 -8.81 -20.12 -1.76 -28.33 5.48 -36.38 12.76 -44.33 20.21 -52 27.82 -59.31 35.42 -66.37 43.15 -72.98 50.98 -79.1 58.77 -84.88 66.64 -90.15 74.59 -94.9 82.45 -99.34 90.39 -103.32 98.38 -106.88 106.28 -110.3 114.24 -113.44 122.26 -116.36 130.19 -119.36 138.19 -122.31 146.26 -125.27 154.26 -128.51 162.34 -131.86 170.51 -135.35 178.63 -139.21 186.85 -143.21 195.16 -147.32 203.45 -151.7 211.85 -156.08 220.36 -160.38 228.85 -164.72 237.46 -168.79 246.2 -172.52 254.92 -176.03 263.77 -179.03 272.73 -181.48 281.69 -183.55 290.77 -185.03 299.96 -185.92 309.15 -186.49 318.45 -186.57 327.86 -186.23 337.27 -185.81 346.78 -185.16 356.39 -184.37 366 -183.79 375.7 -183.24 385.51 -182.79" stroke-dasharray="9 8" transform="rotate(8.24, 400, 400)" opacity="0.92"></path><path d="M391.3 -157.68C400.83 -157.6 410.38 -157.67 419.95 -157.86 429.53 -158.39 439.14 -158.93 448.77 -159.41 458.43 -159.97 468.12 -160.28 477.85 -160.25 487.62 -160.03 497.43 -159.31 507.3 -158.04 517.2 -156.42 527.17 -154.19 537.2 -151.39 547.27 -148.25 557.4 -144.6 567.59 -140.52 577.83 -136.27 588.11 -131.76 598.43 -127.05 608.77 -122.43 619.13 -117.79 629.48 -113.19 639.81 -108.88 650.09 -104.71 660.28 -100.69 670.39 -97.04 680.35 -93.53 690.12 -90.13 699.71 -87.02 709.02 -83.93 718.01 -80.79 726.72 -77.76 735.02 -74.54 742.84 -71.07 750.29 -67.5 757.21 -63.56 763.53 -59.21 769.44 -54.59 774.72 -49.5 779.37 -43.92 783.62 -38.03 787.27 -31.66 790.33 -24.84 793.12 -17.75 795.44 -10.27 797.36 -2.47 799.24 5.49 800.91 13.7 802.5 22.08 804.35 30.49 806.36 38.99 808.64 47.52 811.53 55.96 814.93 64.37 818.94 72.72 823.82 80.89 829.45 88.97 835.87 96.96 843.23 104.73 851.35 112.42 860.18 120.02 869.73 127.41 879.77 134.74 890.13 142.04 900.72 149.17 911.25 156.3 921.47 163.46 931.27 170.5 940.31 177.6 948.35 184.79 955.35 191.9 961 199.13 965.14 206.49 967.9 213.81 969.06 221.29 968.62 228.92 966.94 236.55 963.91 244.35 959.72 252.32 954.92 260.29 949.5 268.44 943.8 276.76 938.43 285.08 933.42 293.58 929.11 302.23 926.04 310.9 924.16 319.72 923.66 328.69 924.86 337.66 927.56 346.78 931.68 356.03 937.28 365.29 943.92 374.69 951.32 384.22 959.31 393.76 967.2 403.32 974.61 412.91 981.44 422.5 987.08 432.13 991.24 441.79 993.97 451.47 994.86 461.21 993.85 471 991.2 480.82 986.75 490.71 980.67 500.69 973.38 510.71 964.94 520.83 955.66 531.05 946 541.33 936.12 551.71 926.34 562.2 917.08 572.76 908.43 583.41 900.61 594.14 893.92 604.91 888.31 615.74 883.81 626.59 880.61 637.41 878.47 648.2 877.27 658.9 877.11 669.47 877.59 679.86 878.52 690.01 879.95 699.88 881.42 709.4 882.72 718.47 883.93 727.13 884.6 735.24 884.58 742.71 884.01 749.67 882.51 755.92 880.04 761.42 876.76 766.38 872.43 770.6 867.1 774.1 860.95 777.17 853.87 779.65 845.96 781.61 837.41 783.44 828.2 785.01 818.45 786.46 808.34 788.22 797.88 790.18 787.2 792.53 776.42 795.63 765.6 799.43 754.8 804.04 744.14 809.73 733.63 816.39 723.32 824.04 713.27 832.77 703.48 842.38 693.96 852.73 684.75 863.72 675.81 875.04 667.12 886.43 658.74 897.67 650.57 908.38 642.58 918.24 634.85 927.07 627.23 934.51 619.71 940.32 612.37 944.55 605.06 946.95 597.74 947.5 590.55 946.57 583.29 944.1 575.95 940.36 568.68 935.98 561.28 931.09 553.74 926.11 546.22 921.79 538.54 918.25 530.68 915.91 522.82 915.3 514.78 916.41 506.54 919.35 498.29 924.3 489.85 930.89 481.22 938.87 472.57 948.01 463.74 957.67 454.72 967.29 445.69 976.49 436.49 984.53 427.11 990.9 417.73 995.39 408.19 997.48 398.5 997 388.81 994.22 379.09 989.12 369.36 982.06 359.63 973.72 349.9 964.43 340.18 954.79 330.47 945.54 320.79 937.04 311.13 929.74 301.49 924.17 291.9 920.38 282.36 918.46 272.86 918.58 263.42 920.37 254.06 923.53 244.74 927.98 235.52 933.03 226.4 938.2 217.33 943.34 208.38 947.72 199.56 950.94 190.81 952.96 182.19 953.26 173.73 951.72 165.33 948.48 157.09 943.38 149.01 936.55 141 928.34 133.16 918.85 125.48 908.39 117.86 897.37 110.4 886.02 103.11 874.67 95.85 863.69 88.73 853.24 81.76 843.54 74.79 834.85 67.95 827.16 61.22 820.51 54.46 815.06 47.81 810.58 41.24 806.99 34.61 804.35 28.07 802.3 21.6 800.67 15.06 799.52 8.6 798.42 2.23 797.2 -4.21 795.95 -10.55 794.27 -16.78 792.03 -23.04 789.39 -29.17 786 -35.12 781.84 -41.07 777.08 -46.82 771.5 -52.35 765.13 -57.83 758.15 -63.06 750.44 -68.04 742.08 -72.94 733.23 -77.58 723.85 -81.96 714.04 -86.28 703.9 -90.36 693.46 -94.22 682.8 -98.06 671.99 -101.74 661.07 -105.26 650.11 -108.85 639.12 -112.34 628.17 -115.75 617.29 -119.28 606.46 -122.77 595.75 -126.22 585.15 -129.81 574.66 -133.34 564.29 -136.79 554.05 -140.34 543.92 -143.74 533.9 -146.96 523.99 -150.17 514.16 -153.1 504.42 -155.71 494.75 -158.18 485.14 -160.25 475.58 -161.88 466.06 -163.3 456.57 -164.25 447.1 -164.74 437.64 -165.03 428.19 -164.9 418.74 -164.39 409.28 -163.79 399.82 -162.92 390.34 -161.81 380.85 -160.79 371.36 -159.67 361.96 -158.49 352.66 -157.51 343.36 -156.54 334.17 -155.58 325.09 -154.84 316.02 -154.09 307.07 -153.31 298.25 -152.67 289.45 -151.91 280.79 -150.99 272.29 -150.09 263.82 -148.92 255.5 -147.47 247.37 -145.9 239.26 -143.98 231.33 -141.68 223.59 -139.22 215.88 -136.37 208.35 -133.15 201 -129.78 193.66 -126.08 186.49 -122.07 179.49 -117.98 172.45 -113.65 165.56 -109.11 158.78 -104.58 151.93 -99.89 145.17 -95.09 138.46 -90.35 131.62 -85.52 124.79 -80.6 117.96 -75.77 110.93 -70.85 103.84 -65.84 96.69 -60.89 89.31 -55.82 81.82 -50.63 74.23 -45.45 66.41 -40.1 58.49 -34.57 50.48 -29.02 42.29 -23.25 34.05 -17.28 25.81 -11.24 17.49 -4.97 9.24 1.5 1.12 8.05 -6.92 14.82 -14.74 21.79 -22.28 28.8 -29.6 36 -36.54 43.37 -43.05 50.76 -49.24 58.28 -54.96 65.93 -60.19 73.56 -65.09 81.29 -69.51 89.11 -73.48 96.88 -77.23 104.72 -80.62 112.62 -83.71 120.46 -86.77 128.34 -89.66 136.29 -92.45 144.15 -95.42 152.06 -98.44 160.03 -101.53 167.93 -104.96 175.88 -108.55 183.9 -112.29 191.86 -116.38 199.89 -120.6 208 -124.89 216.05 -129.4 224.2 -133.84 232.43 -138.15 240.63 -142.42 248.93 -146.39 257.33 -149.95 265.71 -153.24 274.2 -156.01 282.79 -158.2 291.37 -160.02 300.07 -161.24 308.88 -161.88 317.68 -162.23 326.6 -162.11 335.64 -161.6 344.67 -161.04 353.82 -160.28 363.1 -159.4 372.37 -158.76 381.77 -158.17 391.29 -157.68" stroke-dasharray="9 6" transform="rotate(12.36, 400, 400)" opacity="0.89"></path><path d="M399.72 -132.58C409.01 -132.48 418.34 -132.55 427.71 -132.77 437.08 -133.32 446.48 -133.92 455.93 -134.48 465.39 -135.15 474.89 -135.61 484.43 -135.77 493.99 -135.77 503.59 -135.31 513.22 -134.33 522.88 -133.01 532.56 -131.11 542.27 -128.64 552 -125.79 561.73 -122.42 571.46 -118.58 581.19 -114.52 590.89 -110.12 600.55 -105.47 610.17 -100.83 619.71 -96.1 629.14 -91.34 638.48 -86.81 647.67 -82.38 656.66 -78.08 665.51 -74.13 674.1 -70.33 682.39 -66.7 690.47 -63.39 698.19 -60.17 705.51 -57.01 712.55 -54.05 719.15 -51.03 725.26 -47.88 731.06 -44.74 736.35 -41.36 741.12 -37.68 745.6 -33.84 749.57 -29.61 753.06 -24.96 756.34 -20.03 759.2 -14.66 761.72 -8.83 764.18 -2.7 766.42 3.84 768.53 10.79 770.82 17.99 773.15 25.53 775.62 33.35 778.55 41.32 781.8 49.49 785.48 57.83 789.83 66.2 794.75 74.65 800.3 83.15 806.63 91.58 813.63 100 821.28 108.39 829.64 116.64 838.55 124.83 847.91 132.96 857.68 140.91 867.65 148.8 877.65 156.62 887.58 164.27 897.18 171.88 906.23 179.46 914.67 186.88 922.21 194.3 928.66 201.74 934.05 209.05 938.13 216.4 940.79 223.82 942.23 231.14 942.26 238.56 940.94 246.07 938.62 253.52 935.23 261.1 930.96 268.8 926.31 276.46 921.28 284.27 916.15 292.23 911.45 300.16 907.21 308.26 903.69 316.51 901.34 324.75 900.1 333.15 900.11 341.72 901.64 350.28 904.48 359.01 908.56 367.91 913.93 376.81 920.21 385.88 927.12 395.12 934.56 404.37 941.92 413.69 948.86 423.07 955.33 432.46 960.76 441.93 964.91 451.47 967.83 461.02 969.13 470.65 968.74 480.36 966.87 490.08 963.35 499.88 958.3 509.76 952.07 519.65 944.67 529.61 936.34 539.63 927.5 549.66 918.26 559.73 908.89 569.82 899.77 579.9 891 589.96 882.79 599.99 875.44 609.95 868.93 619.82 863.34 629.55 858.89 639.14 855.39 648.53 852.81 657.67 851.27 666.56 850.46 675.12 850.23 683.29 850.68 691.12 851.41 698.48 852.24 705.32 853.66 714.7 854.39 729.92 852.95 735.77 849.88 740.63 838.34 748.06 829.9 751.16 823.34 753.41 816.04 755.77 808.08 758.37 799.63 761.56 790.66 765.23 781.27 769.51 771.6 774.65 761.66 780.56 751.54 787.28 741.35 794.95 731.1 803.41 720.87 812.61 710.72 822.52 700.66 832.92 690.74 843.64 681.01 854.52 671.45 865.28 662.07 875.65 652.92 885.48 643.95 894.43 635.17 902.25 626.61 908.88 618.2 914.05 609.93 917.61 601.85 919.75 593.86 920.27 585.95 919.27 578.19 917.18 570.45 913.97 562.73 909.92 555.11 905.67 547.45 901.28 539.75 897.15 532.11 893.91 524.4 891.63 516.59 890.59 508.81 891.24 500.92 893.48 492.91 897.34 484.91 902.93 476.77 909.87 468.51 917.9 460.24 926.81 451.83 936 443.28 945 434.73 953.48 426.03 960.81 417.2 966.55 408.37 970.56 399.4 972.4 390.31 971.9 381.22 969.34 372.11 964.65 363.01 958.18 353.92 950.48 344.83 941.84 335.77 932.76 326.71 923.9 317.69 915.55 308.72 908.14 299.76 902.17 290.86 897.69 282.03 894.85 273.23 893.86 264.5 894.45 255.87 896.41 247.27 899.73 238.78 903.85 230.4 908.37 222.06 913.2 213.84 917.67 205.76 921.41 197.72 924.36 189.82 926 182.06 926.13 174.36 924.85 166.79 921.87 159.37 917.23 152 911.2 144.76 903.74 137.67 895.07 130.61 885.54 123.67 875.28 116.87 864.59 110.07 853.8 103.38 843.08 96.81 832.67 90.2 822.83 83.69 813.65 77.28 805.25 70.8 797.8 64.41 791.23 58.09 785.53 51.69 780.8 45.37 776.83 39.12 773.49 32.79 770.89 26.55 768.68 20.38 766.71 14.17 765.09 8.05 763.43 2.06 761.6 -3.95 759.74 -9.83 757.49 -15.54 754.76 -21.24 751.73 -26.74 748.08 -32.04 743.8 -37.29 739.07 -42.32 733.68 -47.11 727.64 -51.85 721.14 -56.35 714.04 -60.62 706.39 -64.85 698.35 -68.87 689.85 -72.69 680.96 -76.52 671.78 -80.18 662.3 -83.7 652.59 -87.27 642.71 -90.74 632.68 -94.11 622.55 -97.58 612.35 -100.97 602.11 -104.28 591.86 -107.69 581.61 -111.01 571.39 -114.21 561.23 -117.47 551.1 -120.56 541.04 -123.46 531.06 -126.33 521.12 -128.94 511.26 -131.25 501.49 -133.45 491.76 -135.29 482.11 -136.76 472.54 -138.06 463 -138.96 453.52 -139.48 444.11 -139.84 434.72 -139.84 425.39 -139.52 416.11 -139.13 406.84 -138.48 397.62 -137.61 388.45 -136.81 379.28 -135.88 370.27 -134.85 361.42 -133.98 352.56 -133.06 343.85 -132.1 335.31 -131.32 326.76 -130.48 318.37 -129.57 310.15 -128.77 301.91 -127.86 293.85 -126.78 285.94 -125.73 278.03 -124.45 270.28 -122.92 262.7 -121.33 255.09 -119.43 247.64 -117.21 240.35 -114.88 233.01 -112.22 225.82 -109.23 218.75 -106.14 211.62 -102.74 204.59 -99.07 197.64 -95.33 190.61 -91.35 183.62 -87.17 176.68 -82.98 169.6 -78.63 162.52 -74.14 155.43 -69.69 148.16 -65.13 140.85 -60.46 133.48 -55.86 125.91 -51.15 118.26 -46.35 110.54 -41.6 102.62 -36.72 94.63 -31.72 86.57 -26.74 78.37 -21.6 70.14 -16.31 61.91 -10.98 53.62 -5.47 45.4 0.23 37.28 6 29.23 11.97 21.37 18.15 13.75 24.4 6.32 30.86 -0.77 37.52 -7.49 44.25 -13.94 51.16 -19.95 58.25 -25.51 65.38 -30.76 72.66 -35.55 80.09 -39.88 87.52 -43.96 95.08 -47.65 102.74 -50.98 110.38 -54.21 118.11 -57.19 125.92 -59.99 133.68 -62.87 141.51 -65.7 149.4 -68.53 157.22 -71.63 165.1 -74.83 173.03 -78.17 180.89 -81.87 188.81 -85.72 196.78 -89.73 204.68 -94.05 212.64 -98.46 220.67 -102.89 228.63 -107.45 236.67 -111.9 244.78 -116.14 252.84 -120.29 260.99 -124.07 269.22 -127.41 277.42 -130.44 285.71 -132.93 294.09 -134.84 302.45 -136.37 310.92 -137.32 319.5 -137.72 328.05 -137.85 336.72 -137.55 345.51 -136.89 354.29 -136.21 363.19 -135.35 372.23 -134.41 381.25 -133.71 390.41 -133.08 399.71 -132.58" stroke-dasharray="2 4" transform="rotate(16.48, 400, 400)" opacity="0.85"></path><path d="M408.21 -107.48C417.26 -107.37 426.33 -107.43 435.42 -107.66 444.51 -108.23 453.62 -108.86 462.74 -109.48 471.87 -110.24 481.02 -110.82 490.17 -111.15 499.32 -111.35 508.48 -111.14 517.63 -110.45 526.77 -109.44 535.89 -107.88 544.98 -105.76 554.05 -103.26 563.07 -100.23 572.01 -96.69 580.9 -92.89 589.7 -88.7 598.37 -84.19 606.96 -79.62 615.38 -74.88 623.62 -70.05 631.73 -65.36 639.62 -60.71 647.23 -56.15 654.68 -51.89 661.83 -47.77 668.64 -43.82 675.23 -40.21 681.46 -36.73 687.3 -33.38 695.51 -28.77 709.55 -19.73 715.42 -14.97 720.7 -9.93 729.7 1.97 733.71 9.02 736.48 14.12 739.24 19.63 742.07 25.55 745.25 31.74 748.63 38.32 752.31 45.25 756.51 52.4 761.13 59.86 766.22 67.58 771.96 75.43 778.22 83.49 785.03 91.69 792.49 99.95 800.44 108.31 808.86 116.72 817.74 125.11 826.93 133.51 836.3 141.91 845.82 150.22 855.27 158.51 864.48 166.75 873.41 174.88 881.8 182.97 889.48 191.02 896.45 198.93 902.44 206.82 907.33 214.69 911.21 222.43 913.86 230.17 915.23 237.92 915.57 245.56 914.71 253.24 912.73 260.95 910.01 268.59 906.46 276.29 902.27 284.06 897.91 291.78 893.35 299.59 888.83 307.5 884.84 315.37 881.34 323.36 878.56 331.47 876.88 339.56 876.22 347.78 876.67 356.15 878.48 364.5 881.42 373 885.43 381.65 890.57 390.3 896.47 399.11 902.92 408.08 909.84 417.05 916.68 426.08 923.15 435.16 929.25 444.25 934.45 453.4 938.54 462.59 941.6 471.79 943.23 481.03 943.37 490.31 942.2 499.59 939.53 508.9 935.44 518.21 930.23 527.52 923.86 536.81 916.52 546.08 908.58 555.3 900.1 564.47 891.31 573.55 882.55 582.55 873.92 591.43 865.59 600.15 857.86 608.73 850.74 617.1 844.34 625.22 838.86 633.14 834.21 640.76 830.38 648.02 827.51 655.04 825.39 661.67 823.91 667.86 823.05 676.49 823.54 691.04 824.09 696.98 823.42 706.64 815.32 719.23 809.53 723.71 804.85 727.23 799.44 731.1 793.35 735.42 786.74 740.44 779.54 746.05 771.8 752.3 763.67 759.34 755.13 767.05 746.24 775.4 737.12 784.42 727.78 793.95 718.26 803.87 708.67 814.1 699.01 824.41 689.33 834.63 679.69 844.61 670.09 854.09 660.56 862.84 651.15 870.8 641.84 877.67 632.65 883.3 623.6 887.74 614.69 890.77 605.89 892.35 597.25 892.74 588.72 891.83 580.28 889.76 571.98 886.98 563.76 883.48 555.6 879.56 547.55 875.77 539.53 872.17 531.54 869.07 523.62 867.01 515.7 865.98 507.75 866.2 499.86 867.99 491.93 871.2 483.95 875.81 476 881.87 467.99 889.02 459.9 896.98 451.83 905.56 443.68 914.23 435.45 922.58 427.22 930.36 418.9 937 410.5 942.15 402.1 945.72 393.61 947.31 385.04 946.8 376.47 944.44 367.93 940.16 359.41 934.23 350.9 927.17 342.43 919.17 334 910.67 325.58 902.23 317.22 894.12 308.92 886.71 300.63 880.46 292.42 875.45 284.29 871.83 276.18 869.85 268.16 869.32 260.23 870.1 252.34 872.26 244.54 875.33 236.87 879.02 229.22 883.25 221.69 887.47 214.28 891.32 206.9 894.79 199.64 897.32 192.51 898.71 185.4 899.02 178.42 897.89 171.56 895.28 164.7 891.37 157.97 886.04 151.35 879.42 144.72 871.76 138.19 863.13 131.77 853.74 125.31 843.88 118.94 833.69 112.66 823.4 106.32 813.26 100.05 803.38 93.85 793.93 87.58 785.09 81.37 776.89 75.23 769.39 69 762.71 62.85 756.76 56.76 751.49 50.6 747.02 44.53 743.11 38.54 739.67 32.51 736.8 26.58 734.2 20.78 731.75 14.97 729.59 9.3 727.36 3.8 724.99 -1.68 722.62 -6.98 719.93 -12.08 716.86 -17.14 713.58 -21.99 709.83 -26.62 705.58 -31.21 701.02 -35.58 695.93 -39.74 690.32 -43.87 684.38 -47.81 677.94 -51.56 671.06 -55.31 663.87 -58.91 656.27 -62.37 648.33 -65.86 640.15 -69.23 631.69 -72.5 622.98 -75.83 614.11 -79.05 605.07 -82.17 595.89 -85.36 586.61 -88.43 577.25 -91.36 567.83 -94.32 558.36 -97.11 548.88 -99.71 539.4 -102.27 529.9 -104.6 520.43 -106.65 511 -108.62 501.57 -110.28 492.19 -111.61 482.87 -112.83 473.56 -113.71 464.31 -114.26 455.13 -114.71 445.95 -114.84 436.85 -114.69 427.82 -114.49 418.79 -114.06 409.82 -113.42 400.93 -112.81 392.04 -112.06 383.33 -111.19 374.78 -110.43 366.22 -109.58 357.83 -108.65 349.6 -107.84 341.36 -106.94 333.28 -105.94 325.35 -105.03 317.4 -103.98 309.6 -102.78 301.94 -101.6 294.24 -100.21 286.68 -98.61 279.23 -96.96 271.74 -95.05 264.36 -92.87 257.07 -90.62 249.71 -88.08 242.43 -85.26 235.2 -82.37 227.89 -79.22 220.61 -75.82 213.35 -72.37 205.97 -68.7 198.59 -64.83 191.19 -60.97 183.65 -56.93 176.08 -52.75 168.46 -48.61 160.68 -44.34 152.86 -39.95 144.97 -35.62 136.95 -31.18 128.88 -26.63 120.78 -22.12 112.57 -17.5 104.36 -12.75 96.17 -8.02 87.95 -3.15 79.81 1.87 71.77 6.91 63.8 12.13 56.01 17.53 48.44 22.98 41.03 28.62 33.92 34.46 27.14 40.36 20.61 46.47 14.47 52.77 8.74 59.15 3.29 65.72 -1.72 72.47 -6.31 79.28 -10.64 86.25 -14.58 93.38 -18.15 100.55 -21.57 107.86 -24.71 115.29 -27.61 122.74 -30.52 130.29 -33.3 137.93 -36.02 145.56 -38.92 153.28 -41.87 161.06 -44.9 168.82 -48.24 176.63 -51.72 184.51 -55.37 192.34 -59.36 200.22 -63.5 208.16 -67.75 216.04 -72.26 223.98 -76.79 231.97 -81.28 239.91 -85.84 247.91 -90.21 255.97 -94.31 263.98 -98.25 272.06 -101.78 280.21 -104.85 288.32 -107.57 296.52 -109.75 304.79 -111.35 313.03 -112.58 321.36 -113.27 329.78 -113.43 338.19 -113.35 346.69 -112.88 355.3 -112.1 363.89 -111.3 372.59 -110.37 381.41 -109.38 390.22 -108.64 399.15 -107.99 408.2 -107.48" stroke-dasharray="1 4" transform="rotate(20.6, 400, 400)" opacity="0.81"></path><path d="M414.23 -82.38C422.96 -82.25 431.69 -82.31 440.39 -82.53 449.1 -83.1 457.78 -83.75 466.44 -84.41 475.09 -85.23 483.72 -85.92 492.3 -86.39 500.87 -86.77 509.39 -86.79 517.84 -86.37 526.28 -85.68 534.63 -84.46 542.88 -82.7 551.1 -80.59 559.2 -77.93 567.16 -74.76 575.05 -71.29 582.79 -67.39 590.34 -63.13 597.79 -58.72 605.03 -54.07 612.04 -49.27 618.92 -44.52 625.55 -39.74 631.88 -34.98 638.07 -30.45 643.96 -26.03 649.53 -21.74 654.94 -17.77 660.03 -13.95 664.79 -10.28 671.56 -5.29 683.45 3.98 688.68 8.51 693.71 13.04 703.32 23.15 708.2 28.96 711.73 33.12 715.4 37.63 719.28 42.51 723.57 47.63 728.16 53.12 733.11 58.98 738.57 65.09 744.44 71.53 750.74 78.3 757.59 85.27 764.85 92.51 772.53 100 780.65 107.63 789.08 115.45 797.76 123.43 806.66 131.48 815.64 139.64 824.56 147.89 833.4 156.14 841.95 164.44 850.08 172.77 857.76 181.06 864.78 189.36 871 197.64 876.46 205.86 880.95 214.07 884.38 222.26 886.9 230.37 888.32 238.46 888.62 246.54 888.09 254.54 886.57 262.54 884.16 270.55 881.24 278.49 877.71 286.44 873.74 294.42 869.77 302.35 865.75 310.32 861.88 318.33 858.59 326.31 855.81 334.35 853.72 342.46 852.66 350.55 852.51 358.72 853.35 366.98 855.38 375.22 858.38 383.56 862.3 392 867.19 400.43 872.73 408.97 878.72 417.61 885.13 426.25 891.47 434.9 897.49 443.55 903.21 452.19 908.16 460.83 912.16 469.46 915.29 478.08 917.19 486.67 917.77 495.22 917.22 503.76 915.31 512.24 912.1 520.65 907.85 529.02 902.48 537.29 896.15 545.44 889.15 553.52 881.52 561.46 873.44 569.21 865.23 576.87 856.94 584.31 848.75 591.51 840.92 598.57 833.49 605.36 826.55 611.85 820.33 618.17 814.76 624.16 809.88 629.8 804.18 637.82 797.12 651.84 795.38 657.89 794.57 668.58 793.29 683.57 791.67 688.88 789.09 695 780.32 709.72 774.05 718.66 769.21 725.43 763.77 732.73 757.77 740.56 751.36 748.96 744.46 757.81 737.12 767.03 729.47 776.59 721.47 786.31 713.17 796.07 704.68 805.77 695.97 815.19 687.11 824.18 678.15 832.64 669.11 840.35 660.01 847.13 650.91 853 641.8 857.74 632.73 861.25 623.7 863.69 614.72 864.88 605.82 864.87 596.99 863.98 588.24 862.12 579.57 859.45 570.99 856.45 562.49 853.09 554.06 849.64 545.71 846.59 537.43 843.97 529.2 842.01 521.04 841.15 512.92 841.34 504.83 842.7 496.79 845.49 488.76 849.51 480.75 854.71 472.77 861.08 464.78 868.28 456.78 876.05 448.8 884.24 440.8 892.35 432.77 900.04 424.76 907.12 416.71 913.11 408.63 917.7 400.55 920.85 392.44 922.21 384.29 921.7 376.15 919.53 368.06 915.63 360.05 910.23 352.03 903.78 344.09 896.41 336.22 888.49 328.35 880.53 320.55 872.73 312.85 865.41 305.15 859.01 297.53 853.6 290.01 849.36 282.5 846.53 275.08 844.99 267.77 844.67 260.47 845.67 253.27 847.64 246.18 850.34 239.1 853.78 232.13 857.45 225.27 861.07 218.4 864.64 211.65 867.64 205 869.85 198.35 871.32 191.8 871.65 185.34 870.76 178.87 868.77 172.48 865.48 166.19 860.92 159.85 855.32 153.6 848.61 147.42 840.96 141.18 832.61 135.01 823.63 128.9 814.2 122.72 804.57 116.6 794.83 110.53 785.14 104.39 775.72 98.3 766.61 92.27 757.92 86.17 749.81 80.14 742.24 74.17 735.25 68.15 728.95 62.22 723.22 56.38 718.03 50.51 713.47 44.75 709.35 39.13 705.57 33.5 702.27 28.02 699.16 22.71 696.17 14.87 692.05 0.2 683.4 -6.6 678.51 -11.02 675.06 -15.24 671.24 -19.26 667.05 -23.25 662.67 -27.06 657.88 -30.7 652.69 -34.33 647.27 -37.8 641.46 -41.12 635.28 -44.47 628.88 -47.69 622.14 -50.78 615.09 -53.92 607.87 -56.93 600.37 -59.82 592.64 -62.76 584.78 -65.56 576.73 -68.21 568.51 -70.89 560.21 -73.4 551.79 -75.71 543.27 -78.01 534.7 -80.09 526.06 -81.92 517.38 -83.71 508.68 -85.22 499.95 -86.46 491.21 -87.63 482.47 -88.51 473.73 -89.11 465 -89.64 456.28 -89.9 447.58 -89.91 438.91 -89.9 430.25 -89.66 421.61 -89.22 413.02 -88.8 404.42 -88.23 395.97 -87.51 387.64 -86.86 379.32 -86.08 371.12 -85.2 363.05 -84.39 354.96 -83.46 346.99 -82.41 339.14 -81.42 331.26 -80.27 323.47 -78.97 315.79 -77.68 308.06 -76.21 300.41 -74.52 292.83 -72.82 285.19 -70.88 277.61 -68.71 270.07 -66.5 262.45 -64.03 254.86 -61.34 247.28 -58.59 239.61 -55.61 231.94 -52.42 224.25 -49.2 216.47 -45.78 208.66 -42.18 200.82 -38.59 192.89 -34.84 184.92 -30.95 176.92 -27.09 168.84 -23.11 160.74 -19.01 152.64 -14.95 144.49 -10.79 136.35 -6.52 128.27 -2.29 120.19 2.04 112.2 6.5 104.32 10.95 96.53 15.52 88.91 20.24 81.5 24.96 74.25 29.84 67.27 34.89 60.58 39.98 54.13 45.24 48.01 50.69 42.27 56.2 36.78 61.9 31.68 67.8 26.97 73.76 22.5 79.91 18.4 86.25 14.66 92.66 11.09 99.24 7.81 105.99 4.78 112.79 1.79 119.75 -1.02 126.85 -3.73 133.99 -6.56 141.25 -9.37 148.63 -12.21 156.02 -15.3 163.52 -18.5 171.1 -21.83 178.68 -25.49 186.35 -29.31 194.08 -33.28 201.79 -37.55 209.57 -41.93 217.41 -46.37 225.22 -50.99 233.08 -55.57 241 -60.04 248.88 -64.49 256.82 -68.69 264.81 -72.58 272.77 -76.24 280.78 -79.47 288.85 -82.2 296.89 -84.58 304.99 -86.42 313.16 -87.71 321.3 -88.64 329.51 -89.06 337.78 -89 346.05 -88.73 354.38 -88.11 362.8 -87.22 371.2 -86.34 379.69 -85.35 388.26 -84.33 396.82 -83.56 405.48 -82.9 414.22 -82.38" stroke-dasharray="6 1" transform="rotate(24.72, 400, 400)" opacity="0.77"></path><path d="M415.94 -57.27C424.28 -57.14 432.55 -57.18 440.77 -57.39 448.98 -57.95 457.13 -58.6 465.21 -59.28 473.27 -60.14 481.26 -60.9 489.16 -61.49 497.03 -62.03 504.81 -62.24 512.47 -62.08 520.1 -61.68 527.6 -60.8 534.96 -59.42 542.27 -57.7 549.42 -55.45 556.4 -52.7 563.31 -49.62 570.02 -46.09 576.53 -42.15 582.95 -38.02 589.15 -33.58 595.11 -28.92 600.98 -24.22 606.6 -19.42 611.96 -14.56 617.23 -9.85 622.24 -5.19 626.99 -0.61 633.88 5.79 646.43 17.45 652.2 22.73 657.85 27.52 668.85 36.63 674.41 41.19 680.37 45.8 693.46 56.08 700.82 61.94 706.23 66.09 711.95 70.56 718 75.36 724.48 80.36 731.3 85.7 738.46 91.35 746 97.22 753.82 103.4 761.87 109.86 770.17 116.51 778.58 123.42 787.03 130.55 795.5 137.82 803.83 145.28 811.92 152.91 819.75 160.62 827.15 168.47 833.99 176.41 840.3 184.39 845.88 192.45 850.63 200.56 854.67 208.68 857.77 216.83 859.91 224.99 861.27 233.14 861.67 241.3 861.15 249.45 859.98 257.58 858.03 265.71 855.41 273.82 852.46 281.91 849.1 290 845.48 298.08 841.98 306.13 838.55 314.19 835.34 322.25 832.73 330.29 830.63 338.35 829.18 346.43 828.67 354.49 828.97 362.57 830.12 370.68 832.32 378.79 835.35 386.93 839.15 395.1 843.79 403.26 848.97 411.46 854.52 419.7 860.45 427.93 866.3 436.09 871.87 444.18 877.21 452.27 881.9 460.27 885.78 468.19 888.93 476.09 891.01 483.89 891.96 491.58 891.93 499.24 890.7 506.77 888.29 514.15 884.93 521.49 880.52 528.67 875.16 535.66 869.13 542.58 862.4 549.3 855.14 555.8 847.62 562.22 839.86 568.4 832.02 574.32 824.36 580.15 816.87 585.71 809.69 591 803.02 596.2 796.82 601.13 791.15 605.79 783.98 612.57 773.55 624.96 770.11 630.73 767.93 636.52 765.38 648.26 764.52 654.49 763.72 661.4 760.81 677.22 758.33 686.37 756.28 693.1 753.74 700.24 750.7 707.8 747.31 715.82 743.4 724.19 738.97 732.88 734.19 741.86 728.92 751.01 723.19 760.24 717.14 769.47 710.68 778.56 703.85 787.36 696.77 795.82 689.39 803.75 681.74 811.01 673.92 817.59 665.9 823.29 657.72 828 649.44 831.83 641.05 834.58 632.59 836.24 624.09 837.04 615.56 836.83 607.01 835.71 598.46 834.02 589.93 831.69 581.43 828.9 572.96 826.09 564.52 823.22 556.13 820.51 547.79 818.41 539.49 816.87 531.25 816.09 523.05 816.4 514.89 817.7 506.79 820.08 498.72 823.7 490.69 828.36 482.69 833.95 474.73 840.48 466.79 847.61 458.88 855.1 450.99 862.82 443.11 870.34 435.26 877.37 427.41 883.77 419.57 889.12 411.74 893.19 403.92 895.95 396.1 897.12 388.29 896.59 380.47 894.61 372.75 891.08 365.13 886.18 357.51 880.31 349.98 873.56 342.54 866.23 335.1 858.78 327.76 851.34 320.52 844.21 313.27 837.77 306.12 832.11 299.07 827.38 292.02 823.86 285.06 821.44 278.21 820.12 271.34 820.03 264.58 820.89 257.91 822.54 251.23 825.03 244.65 827.94 238.16 831.05 231.65 834.35 225.23 837.41 218.9 840.01 212.53 842.19 206.25 843.55 200.04 843.97 193.79 843.56 187.61 842.04 181.49 839.39 175.32 835.78 169.21 831.09 163.15 825.39 157.03 818.88 150.96 811.57 144.93 803.58 138.84 795.13 132.8 786.27 126.81 777.16 120.74 767.97 114.74 758.78 108.79 749.71 102.79 740.9 96.86 732.39 91 724.24 85.11 716.57 79.31 709.34 73.62 702.57 67.92 696.36 62.34 690.59 56.89 685.23 51.47 680.38 46.19 675.87 41.08 671.64 36.01 667.79 31.12 664.11 26.41 660.54 19.52 655.53 6.78 645.42 0.92 640.04 -4.69 634.4 -15.04 621.65 -19.83 614.46 -22.97 609.43 -25.98 604.1 -28.86 598.46 -31.76 592.7 -34.54 586.65 -37.18 580.33 -39.86 573.9 -42.39 567.22 -44.78 560.32 -47.19 553.33 -49.44 546.15 -51.51 538.79 -53.57 531.38 -55.45 523.81 -57.11 516.12 -58.74 508.39 -60.15 500.55 -61.33 492.62 -62.47 484.68 -63.36 476.66 -64.02 468.59 -64.64 460.5 -65.03 452.37 -65.19 444.2 -65.33 436.03 -65.28 427.83 -65.02 419.6 -64.78 411.37 -64.36 403.21 -63.79 395.12 -63.25 387.02 -62.57 379 -61.74 371.04 -60.96 363.07 -60.04 355.16 -58.96 347.3 -57.92 339.43 -56.72 331.6 -55.35 323.81 -53.98 315.99 -52.43 308.19 -50.69 300.42 -48.93 292.61 -46.96 284.81 -44.79 277.01 -42.58 269.17 -40.17 261.32 -37.54 253.46 -34.89 245.55 -32.04 237.63 -29 229.7 -25.94 221.72 -22.72 213.73 -19.33 205.74 -15.96 197.71 -12.45 189.7 -8.8 181.71 -5.19 173.72 -1.46 165.78 2.37 157.9 6.15 150.07 10.05 142.34 14.05 134.75 18 127.25 22.06 119.92 26.23 112.8 30.36 105.83 34.63 99.1 39.01 92.65 43.4 86.41 47.92 80.47 52.59 74.86 57.29 69.48 62.15 64.44 67.18 59.76 72.26 55.28 77.51 51.15 82.94 47.34 88.44 43.68 94.12 40.31 99.97 37.19 105.9 34.12 112.01 31.23 118.28 28.48 124.62 25.66 131.12 22.89 137.77 20.14 144.48 17.18 151.34 14.16 158.31 11.04 165.34 7.64 172.48 4.09 179.72 0.4 186.99 -3.59 194.36 -7.73 201.81 -11.98 209.27 -16.47 216.81 -21.02 224.42 -25.56 232.03 -30.19 239.7 -34.72 247.42 -39.06 255.14 -43.31 262.91 -47.27 270.73 -50.85 278.54 -54.18 286.4 -57.05 294.3 -59.41 302.19 -61.43 310.13 -62.92 318.11 -63.88 326.08 -64.52 334.1 -64.69 342.16 -64.43 350.22 -63.99 358.32 -63.24 366.47 -62.25 374.62 -61.31 382.82 -60.29 391.06 -59.25 399.31 -58.47 407.6 -57.8 415.93 -57.28" stroke-dasharray="7 4" transform="rotate(28.840000000000003, 400, 400)" opacity="0.73"></path><path d="M412.84 -32.17C420.68 -32.02 428.43 -32.05 436.08 -32.24 443.73 -32.78 451.28 -33.41 458.72 -34.1 466.15 -34.98 473.46 -35.78 480.65 -36.46 487.81 -37.12 494.85 -37.51 501.74 -37.58 508.6 -37.45 515.3 -36.89 521.84 -35.88 528.34 -34.55 534.67 -32.73 540.81 -30.42 546.91 -27.78 552.81 -24.68 558.52 -21.15 564.17 -17.38 569.63 -13.26 574.87 -8.85 580.07 -4.34 585.07 0.35 589.87 5.17 594.65 9.93 599.23 14.72 603.65 19.5 608.06 24.08 612.33 28.58 616.47 32.98 622.71 39.1 635.03 50.29 641.27 55.4 647.83 60.11 661.88 69.24 669.53 73.85 675.01 76.92 680.72 80.13 686.68 83.53 692.99 86.98 699.55 90.66 706.37 94.59 713.5 98.64 720.85 102.97 728.4 107.58 736.16 112.35 744.05 117.41 751.99 122.75 759.99 128.27 767.93 134.06 775.73 140.1 783.39 146.31 790.76 152.75 797.74 159.4 804.35 166.18 810.44 173.15 815.9 180.28 820.82 187.52 825 194.88 828.39 202.36 831.12 209.9 833.03 217.54 834.08 225.24 834.5 232.98 834.14 240.78 833.03 248.61 831.45 256.46 829.29 264.33 826.63 272.21 823.82 280.11 820.75 288.01 817.56 295.9 814.59 303.8 811.77 311.69 809.21 319.58 807.25 327.46 805.78 335.33 804.91 343.19 804.89 351.05 805.57 358.89 806.99 366.72 809.31 374.55 812.33 382.36 815.99 390.15 820.37 397.94 825.19 405.71 830.33 413.45 835.78 421.19 841.15 428.8 846.3 436.29 851.26 443.77 855.67 451.11 859.39 458.31 862.52 465.5 864.74 472.53 865.97 479.41 866.38 486.26 865.72 492.94 864.02 499.45 861.48 505.92 857.95 512.2 853.54 518.29 848.45 524.33 842.66 530.18 836.28 535.81 829.55 541.41 822.46 546.8 815.16 551.98 807.87 557.14 800.59 562.1 793.44 566.86 786.6 571.63 780.06 576.24 773.89 580.7 768.24 585.2 763.05 589.6 758.32 593.92 752.38 600.57 743.56 614.18 740.46 621.36 738.93 626.47 737.59 631.77 736.37 637.29 735.41 643.17 734.44 649.31 733.4 655.76 732.43 662.58 731.26 669.71 729.86 677.15 728.37 684.94 726.55 692.99 724.37 701.28 721.99 709.78 719.2 718.42 716 727.12 712.54 735.84 708.65 744.46 704.34 752.87 699.77 761.04 694.79 768.82 689.43 776.1 683.82 782.86 677.88 788.95 671.61 794.26 665.15 798.86 658.42 802.57 651.45 805.36 644.34 807.39 637.03 808.5 629.57 808.73 622 808.34 614.32 807.23 606.54 805.49 598.71 803.49 590.81 801.15 582.87 798.64 574.91 796.35 566.93 794.24 558.94 792.47 550.96 791.41 542.98 791 535.01 791.36 527.07 792.74 519.14 795.04 511.24 798.27 503.37 802.54 495.52 807.65 487.7 813.48 479.91 820.02 472.14 826.95 464.41 834.07 456.7 841.27 449.01 848.19 441.36 854.56 433.71 860.3 426.09 865.06 418.5 868.63 410.92 871.04 403.36 872.01 395.82 871.49 388.28 869.68 380.86 866.49 373.54 862.07 366.22 856.76 359 850.61 351.89 843.88 344.77 836.95 337.75 829.92 330.84 823.06 323.91 816.7 317.08 810.91 310.35 805.85 303.61 801.78 296.95 798.64 290.39 796.44 283.81 795.35 277.32 795.16 270.91 795.76 264.47 797.23 258.12 799.23 251.84 801.59 245.53 804.36 239.29 807.12 233.12 809.7 226.9 812.15 220.75 814.09 214.65 815.38 208.51 816.11 202.41 815.97 196.37 814.91 190.27 813.07 184.21 810.25 178.21 806.48 172.14 801.92 166.11 796.49 160.13 790.28 154.09 783.47 148.11 776.06 142.17 768.16 136.19 759.94 130.26 751.44 124.41 742.79 118.52 734.11 112.71 725.46 106.99 716.91 101.25 708.59 95.63 700.5 90.11 692.7 84.61 685.28 79.25 678.19 74.02 671.45 68.83 665.14 63.79 659.17 58.93 653.52 54.11 648.27 49.47 643.29 45.01 638.53 38.51 631.95 26.51 619.7 21.01 613.78 15.74 607.99 6.08 595.94 1.65 589.52 -2.63 582.87 -10.57 568.41 -14.22 560.55 -16.64 555.18 -18.92 549.57 -21.07 543.74 -23.24 537.84 -25.26 531.74 -27.12 525.43 -29 519.07 -30.7 512.52 -32.23 505.8 -33.76 499.04 -35.09 492.11 -36.23 485.04 -37.36 477.95 -38.28 470.72 -39 463.37 -39.71 456.01 -40.21 448.53 -40.51 440.95 -40.81 433.36 -40.91 425.67 -40.82 417.89 -40.73 410.11 -40.47 402.33 -40.03 394.55 -39.61 386.78 -39.03 379.01 -38.28 371.24 -37.54 363.48 -36.64 355.71 -35.58 347.96 -34.52 340.19 -33.3 332.42 -31.89 324.66 -30.48 316.88 -28.89 309.1 -27.11 301.32 -25.31 293.52 -23.31 285.72 -21.13 277.91 -18.93 270.09 -16.53 262.27 -13.96 254.45 -11.36 246.63 -8.6 238.81 -5.66 231.02 -2.73 223.23 0.35 215.48 3.57 207.78 6.78 200.11 10.11 192.51 13.56 185.01 16.97 177.56 20.49 170.24 24.11 163.05 27.67 155.97 31.33 149.07 35.08 142.36 38.79 135.8 42.58 129.46 46.47 123.38 50.33 117.47 54.29 111.84 58.36 106.51 62.41 101.36 66.59 96.51 70.89 91.97 75.2 87.61 79.65 83.54 84.25 79.77 88.88 76.12 93.67 72.72 98.62 69.56 103.62 66.45 108.79 63.5 114.12 60.71 119.52 57.85 125.08 55.07 130.81 52.33 136.61 49.42 142.56 46.48 148.67 43.48 154.85 40.23 161.17 36.87 167.63 33.38 174.15 29.6 180.79 25.69 187.56 21.65 194.37 17.35 201.28 12.95 208.3 8.49 215.35 3.88 222.49 -0.71 229.71 -5.24 236.95 -9.77 244.26 -14.13 251.64 -18.25 259.03 -22.21 266.48 -25.83 273.98 -29.05 281.49 -31.98 289.04 -34.45 296.63 -36.43 304.23 -38.07 311.87 -39.21 319.54 -39.85 327.21 -40.21 334.92 -40.15 342.65 -39.7 350.38 -39.11 358.14 -38.26 365.93 -37.21 373.71 -36.23 381.51 -35.19 389.33 -34.15 397.15 -33.37 404.99 -32.7 412.83 -32.17" stroke-dasharray="10 7" transform="rotate(32.96, 400, 400)" opacity="0.70"></path><path d="M405.86 -7.07C413.14 -6.91 420.32 -6.92 427.39 -7.09 434.45 -7.59 441.4 -8.19 448.22 -8.86 455.03 -9.74 461.71 -10.56 468.25 -11.3 474.78 -12.05 481.17 -12.58 487.41 -12.84 493.63 -12.95 499.7 -12.69 505.61 -12.02 511.5 -11.08 517.23 -9.68 522.8 -7.82 528.35 -5.65 533.74 -3.03 538.97 0.02 544.18 3.35 549.24 7.06 554.15 11.09 559.07 15.3 563.84 19.74 568.5 24.39 573.18 29.06 577.75 33.83 582.24 38.66 586.79 43.39 591.29 48.09 595.74 52.75 600.31 57.21 604.87 61.57 609.46 65.82 614.2 69.82 619.01 73.71 623.9 77.48 629 81.01 634.22 84.45 639.59 87.81 645.2 90.98 650.99 94.12 656.95 97.26 663.17 100.27 669.59 103.34 676.18 106.48 683.02 109.58 690.02 112.81 697.17 116.18 704.49 119.59 711.9 123.19 719.37 126.99 726.9 130.88 734.39 134.99 741.78 139.34 749.1 143.81 756.21 148.53 763.04 153.48 769.62 158.56 775.8 163.88 781.53 169.42 786.84 175.09 791.58 180.97 795.69 187.05 799.28 193.24 802.19 199.6 804.37 206.12 806 212.73 806.92 219.48 807.13 226.34 806.85 233.28 805.95 240.31 804.48 247.42 802.71 254.59 800.52 261.82 798 269.09 795.45 276.41 792.77 283.75 790.07 291.12 787.66 298.52 785.44 305.93 783.52 313.33 782.16 320.76 781.27 328.17 780.91 335.58 781.31 342.99 782.31 350.38 783.94 357.75 786.34 365.12 789.32 372.46 792.82 379.75 796.93 387.05 801.41 394.31 806.13 401.51 811.12 408.71 816.05 415.77 820.77 422.69 825.36 429.59 829.48 436.35 833.02 442.96 836.08 449.55 838.37 455.99 839.82 462.26 840.58 468.53 840.42 474.64 839.33 480.57 837.51 486.5 834.8 492.27 831.26 497.87 827.09 503.48 822.22 508.92 816.74 514.22 810.87 519.53 804.56 524.7 797.94 529.75 791.21 534.83 784.35 539.82 777.46 544.72 770.73 549.69 764.13 554.61 757.75 559.49 751.72 564.5 746 569.52 740.64 574.58 735.75 579.82 731.24 585.13 727.12 590.56 723.49 596.21 720.22 602.02 717.28 608.01 714.78 614.25 712.53 620.71 710.49 627.38 708.78 634.32 707.18 641.48 705.64 648.86 704.28 656.48 702.89 664.27 701.41 672.22 699.98 680.31 698.37 688.47 696.56 696.66 694.69 704.84 692.54 712.92 690.1 720.84 687.53 728.55 684.62 735.96 681.38 742.96 677.95 749.57 674.18 755.63 670.07 761.08 665.77 765.97 661.13 770.15 656.19 773.56 648.35 777.33 631.08 780.13 621.75 779.38 615.34 778.31 608.75 776.79 602 774.92 595.16 773.04 588.19 771.08 581.12 769.17 573.99 767.65 566.77 766.47 559.49 765.74 552.19 765.75 544.83 766.42 537.43 767.83 530.03 770.16 522.61 773.28 515.17 777.17 507.73 781.91 500.29 787.3 492.86 793.21 485.43 799.62 478.01 806.27 470.61 812.94 463.21 819.59 455.83 825.88 448.47 831.6 441.12 836.71 433.79 840.91 426.47 844.02 419.17 846.1 411.88 846.91 404.61 846.39 397.35 844.75 390.18 841.88 383.13 837.9 376.06 833.12 369.1 827.56 362.23 821.42 355.36 815.02 348.58 808.46 341.89 801.93 335.19 795.75 328.58 789.96 322.05 784.71 315.5 780.24 309.03 776.53 302.64 773.61 296.23 771.65 289.88 770.49 283.61 770.08 277.31 770.52 271.07 771.55 264.89 773.03 258.68 775.03 252.52 777.23 246.41 779.46 240.26 781.79 234.16 783.87 228.11 785.57 222.01 786.98 215.95 787.78 209.94 787.9 203.88 787.45 197.87 786.19 191.89 784.12 185.87 781.37 179.9 777.8 173.98 773.45 168.02 768.48 162.12 762.81 156.28 756.54 150.42 749.81 144.62 742.61 138.91 735.04 133.19 727.24 127.57 719.22 122.04 711.07 116.53 702.91 111.13 694.75 105.87 686.67 100.63 678.74 95.53 670.98 90.59 663.42 85.69 656.12 80.96 649.07 76.39 642.28 71.88 635.8 67.55 629.58 63.4 623.59 59.31 617.91 55.4 612.44 51.67 607.15 46.25 599.68 36.34 585.57 31.82 578.77 27.48 572.16 19.53 558.78 15.9 551.89 12.35 544.93 5.85 530.23 2.89 522.46 0.92 517.2 -0.9 511.77 -2.6 506.15 -4.32 500.51 -5.9 494.69 -7.33 488.69 -8.78 482.68 -10.07 476.49 -11.19 470.13 -12.32 463.76 -13.28 457.23 -14.07 450.54 -14.86 443.85 -15.46 437 -15.89 430.01 -16.32 423.02 -16.56 415.89 -16.62 408.62 -16.68 401.36 -16.55 394.05 -16.25 386.7 -15.94 379.35 -15.45 371.98 -14.79 364.57 -14.12 357.17 -13.27 349.74 -12.25 342.29 -11.2 334.85 -9.98 327.39 -8.58 319.91 -7.16 312.45 -5.55 304.97 -3.76 297.5 -1.94 290.03 0.05 282.57 2.23 275.12 4.43 267.7 6.8 260.3 9.34 252.93 11.89 245.6 14.6 238.32 17.46 231.1 20.31 223.94 23.3 216.86 26.41 209.88 29.5 202.98 32.7 196.2 36.01 189.57 39.27 183.04 42.63 176.68 46.07 170.5 49.46 164.46 52.93 158.62 56.49 153.01 59.98 147.55 63.56 142.33 67.22 137.36 72.68 130.26 84 117.57 89.9 111.95 95.89 106.7 108.51 97.26 115.16 92.93 122 88.62 136.49 80.05 144.15 75.61 149.37 72.43 154.73 69.16 160.24 65.78 165.82 62.15 171.54 58.39 177.39 54.52 183.31 50.39 189.35 46.15 195.52 41.83 201.74 37.32 208.08 32.78 214.53 28.24 221.02 23.62 227.61 19.1 234.29 14.72 241.01 10.4 247.81 6.32 254.68 2.53 261.58 -1.05 268.54 -4.26 275.56 -7.06 282.6 -9.57 289.69 -11.62 296.83 -13.19 303.98 -14.45 311.17 -15.25 318.38 -15.6 325.61 -15.71 332.87 -15.43 340.14 -14.83 347.42 -14.12 354.71 -13.19 362.02 -12.1 369.32 -11.09 376.64 -10.05 383.94 -9.02 391.25 -8.25 398.56 -7.59 405.85 -7.07" stroke-dasharray="8 6" transform="rotate(37.08, 400, 400)" opacity="0.66"></path><path d="M397.1 18.02C403.82 18.19 410.44 18.21 416.95 18.06 423.45 17.6 429.84 17.04 436.12 16.4 442.39 15.56 448.54 14.73 454.57 13.97 463.54 12.84 480.85 11.79 489.19 12.15 497.39 13.23 513.22 17.9 520.86 21.52 525.93 24.34 530.91 27.56 535.81 31.13 540.74 34.91 545.61 38.98 550.42 43.3 555.3 47.72 560.14 52.31 564.96 57.03 569.88 61.74 574.8 66.49 579.75 71.27 584.83 75.92 589.96 80.54 595.16 85.09 600.51 89.46 605.96 93.73 611.51 97.91 617.25 101.87 623.1 105.72 629.09 109.49 635.26 113.03 641.56 116.51 647.99 119.93 654.59 123.17 661.31 126.39 668.12 129.6 675.05 132.7 682.04 135.84 689.05 139.03 696.12 142.17 703.14 145.41 710.09 148.77 716.98 152.12 723.71 155.62 730.23 159.29 736.56 162.99 742.59 166.88 748.27 170.96 753.63 175.11 758.56 179.45 762.99 183.99 768.74 191.04 776.68 206.21 778.78 214.32 779.53 219.86 779.7 225.56 779.31 231.41 778.58 237.33 777.37 243.37 775.75 249.54 773.96 255.76 771.9 262.09 769.64 268.5 767.45 274.95 765.22 281.48 763.06 288.06 761.21 294.68 759.58 301.35 758.25 308.04 757.46 314.76 757.08 321.5 757.17 328.26 757.91 335.02 759.18 341.79 760.96 348.55 763.39 355.32 766.3 362.08 769.64 368.81 773.48 375.55 777.6 382.26 781.93 388.93 786.49 395.6 790.98 402.16 795.29 408.59 799.51 415.02 803.34 421.33 806.67 427.52 809.63 433.7 811.94 439.77 813.54 445.71 814.69 454.57 812.07 471.76 808.34 480.1 805.03 485.66 801.05 491.14 796.46 496.54 791.47 501.99 786 507.39 780.16 512.75 774.11 518.19 767.84 523.61 761.42 529.03 755.03 534.56 748.63 540.12 742.3 545.73 736.19 551.48 730.25 557.3 724.53 563.22 719.14 569.31 714.04 575.52 709.23 581.86 704.83 588.38 700.72 595.04 696.92 601.86 693.51 608.85 690.36 615.98 687.45 623.25 684.88 630.66 682.49 638.18 680.23 645.77 678.23 653.42 676.3 661.1 674.39 668.75 672.63 676.36 670.82 683.86 668.94 691.19 667.1 698.34 665.13 705.22 662.98 711.76 659.61 720.86 651.61 735.98 646.89 741.73 641.74 746.07 629.86 750.75 623.16 751.18 616.03 750.54 600.43 747.03 592.04 744.7 586.29 743.3 580.37 741.99 574.29 740.91 568.15 740.31 561.88 740.13 555.49 740.45 549.05 741.49 542.51 743.15 535.89 745.46 529.25 748.57 522.53 752.33 515.75 756.69 508.96 761.72 502.13 767.22 495.26 773.06 488.38 779.24 481.48 785.5 474.55 791.68 467.63 797.74 460.69 803.4 453.74 808.5 446.79 813.01 439.83 816.67 432.88 819.36 425.92 821.14 418.97 821.79 412.01 821.29 405.05 819.8 398.18 817.23 391.39 813.68 384.59 809.41 377.87 804.41 371.23 798.84 364.58 793 358.01 786.92 351.51 780.78 344.99 774.86 338.55 769.18 332.17 763.87 325.78 759.17 319.45 755.05 313.17 751.56 306.88 748.88 300.64 746.88 294.46 745.56 288.25 745.03 282.09 745.07 275.98 745.61 269.84 746.73 263.74 748.16 257.68 749.79 251.6 751.68 245.55 753.53 239.55 755.23 233.52 756.86 227.53 758.14 221.58 758.96 215.6 759.45 209.67 759.34 203.79 758.59 197.88 757.34 192.03 755.39 186.24 752.74 180.44 749.55 174.7 745.67 169.05 741.17 163.39 736.17 157.82 730.62 152.34 724.57 146.88 718.17 141.52 711.39 136.28 704.3 131.08 697.01 126 689.54 121.06 681.94 116.17 674.3 111.42 666.63 106.83 658.98 102.29 651.43 97.92 643.96 93.72 636.62 89.58 629.45 85.61 622.45 81.82 615.61 78.09 608.99 74.53 602.54 71.14 596.27 67.8 590.22 64.63 584.33 61.62 578.58 58.65 573.03 55.83 567.59 53.16 562.24 49.25 554.5 42.09 539.4 38.82 531.93 35.63 524.56 29.75 509.6 27.06 501.93 24.42 494.2 19.66 478.15 17.55 469.81 16.15 464.2 14.89 458.45 13.77 452.56 12.62 446.67 11.62 440.63 10.77 434.45 9.91 428.27 9.21 421.95 8.67 415.49 8.13 409.03 7.76 402.43 7.57 395.7 7.39 388.98 7.39 382.2 7.56 375.38 7.76 368.56 8.15 361.71 8.71 354.83 9.31 347.96 10.09 341.06 11.05 334.16 12.05 327.26 13.23 320.36 14.6 313.46 16 306.57 17.59 299.7 19.36 292.86 21.17 286.04 23.15 279.26 25.31 272.52 27.48 265.82 29.83 259.18 32.33 252.62 34.84 246.11 37.5 239.69 40.3 233.38 43.09 227.14 46.01 221.02 49.04 215.04 52.04 209.16 55.15 203.42 58.35 197.86 61.51 192.4 64.75 187.12 68.07 182.05 73 174.7 83.13 161.23 88.31 155.11 93.48 149.34 104.12 138.87 109.61 134.11 115.15 129.5 126.7 120.73 132.74 116.44 138.91 111.98 151.91 102.65 158.76 97.67 163.41 94.09 168.19 90.42 173.1 86.63 178.07 82.62 183.16 78.51 188.39 74.3 193.66 69.91 199.06 65.46 204.58 60.99 210.15 56.4 215.84 51.86 221.64 47.38 227.48 42.92 233.43 38.6 239.47 34.49 245.55 30.51 251.72 26.81 257.97 23.43 264.25 20.28 270.61 17.52 277.02 15.18 283.47 13.12 289.97 11.5 296.52 10.32 303.1 9.43 309.71 8.95 316.36 8.88 323.02 9 329.72 9.45 336.43 10.18 343.15 10.98 349.89 11.96 356.63 13.07 363.38 14.08 370.14 15.11 376.88 16.11 383.63 16.87 390.37 17.51 397.09 18.02" stroke-dasharray="7 2" transform="rotate(41.2, 400, 400)" opacity="0.62"></path><path d="M389.22 43.12C395.4 43.31 401.51 43.34 407.52 43.23 413.54 42.82 419.47 42.31 425.3 41.71 434.01 40.51 450.99 38.16 459.25 37.28 467.44 36.7 483.42 37.26 491.24 38.56 499.03 40.62 514.39 47.1 522.01 51.48 527.13 54.74 532.24 58.33 537.35 62.2 542.53 66.22 547.72 70.47 552.94 74.91 558.26 79.41 563.62 84.03 569.03 88.73 574.56 93.4 580.15 98.1 585.82 102.81 591.62 107.39 597.49 111.94 603.46 116.43 609.55 120.76 615.72 125.01 621.97 129.17 628.34 133.15 634.77 137.05 641.25 140.87 647.81 144.5 654.39 148.08 660.97 151.6 667.57 154.97 674.12 158.31 680.59 161.65 687.01 164.87 693.3 168.12 699.4 171.4 705.36 174.61 711.08 177.89 716.51 181.26 724.13 186.31 736.98 197.02 742.04 202.72 746.07 208.61 751 221.24 751.91 227.97 751.86 234.94 749.3 249.69 747.05 257.44 744.5 265.39 739.06 281.91 736.57 290.44 735.28 296.19 734.21 302.01 733.42 307.91 733.12 313.82 733.19 319.8 733.66 325.82 734.69 331.86 736.15 337.94 738.04 344.05 740.47 350.17 743.28 356.31 746.43 362.48 750 368.64 753.79 374.83 757.73 381.02 761.87 387.21 765.95 393.34 769.86 399.4 773.72 405.46 777.24 411.46 780.36 417.39 783.18 423.32 785.46 429.2 787.15 435.02 788.65 443.74 787.48 460.98 784.78 469.54 782.26 475.27 779.11 480.99 775.38 486.71 771.25 492.49 766.65 498.27 761.63 504.09 756.36 509.97 750.79 515.9 745 521.89 739.14 527.96 733.16 534.1 727.14 540.32 721.2 546.64 715.31 553.05 709.52 559.55 703.95 566.16 698.53 572.86 693.32 579.65 688.39 586.54 683.69 593.5 679.22 600.53 675.08 607.62 671.17 614.75 667.47 621.9 664.09 629.04 660.9 636.16 657.88 643.2 655.12 650.18 652.49 657.02 649.96 663.68 647.62 670.17 645.33 676.42 643.05 682.37 639.8 690.69 633.1 704.78 629.51 710.35 621.59 717.59 607.63 721.83 602.17 721.26 596.38 720.15 583.62 717.02 576.69 715.49 569.45 714.58 554.03 714.97 545.89 716.67 540.36 718.63 534.7 721.12 528.93 724.17 523.12 727.87 517.2 732.07 511.19 736.72 505.15 741.87 499.03 747.31 492.83 752.96 486.63 758.8 480.35 764.61 474.02 770.25 467.68 775.72 461.29 780.76 454.85 785.25 448.41 789.19 441.93 792.36 435.42 794.65 428.9 796.16 422.36 796.68 415.78 796.19 409.2 794.85 402.67 792.56 396.19 789.41 389.71 785.61 383.28 781.15 376.9 776.15 370.52 770.86 364.18 765.29 357.9 759.59 351.6 753.99 345.35 748.52 339.15 743.28 332.94 738.48 326.77 734.11 320.64 730.22 314.5 726.98 308.41 724.31 302.35 722.2 296.27 720.79 290.24 719.91 284.24 719.52 278.23 719.72 272.25 720.28 266.32 721.13 260.37 722.35 254.46 723.69 248.59 725.04 242.71 726.51 236.88 727.83 231.09 728.9 222.43 730.13 205.39 729.98 197.04 728.35 191.51 726.65 186.06 724.37 180.7 721.52 175.36 718.22 170.12 714.37 164.99 710.01 159.89 705.26 154.91 700.05 150.06 694.44 145.25 688.53 140.58 682.3 136.05 675.8 131.58 669.12 127.25 662.25 123.08 655.25 118.97 648.18 115.02 641.04 111.24 633.88 107.51 626.74 103.95 619.63 100.55 612.58 97.21 605.62 94.03 598.74 91 591.97 88.02 585.32 85.2 578.78 82.52 572.36 79.86 566.08 77.35 559.91 74.97 553.85 72.59 547.92 70.34 542.08 68.21 536.32 66.07 530.68 64.04 525.09 62.11 519.56 59.22 511.4 53.87 495.27 51.39 487.23 48.94 479.22 44.43 463.02 42.4 454.78 40.41 446.49 36.96 429.5 35.53 420.79 34.61 414.95 33.82 409.01 33.19 402.98 32.55 396.95 32.08 390.82 31.77 384.6 31.47 378.38 31.36 372.14 31.43 365.89 31.52 359.65 31.8 353.39 32.27 347.14 32.77 340.9 33.47 334.67 34.35 328.45 35.28 322.24 36.4 316.07 37.7 309.92 39.06 303.8 40.59 297.73 42.31 291.71 44.07 285.72 46.01 279.8 48.11 273.96 50.24 268.17 52.54 262.46 54.99 256.86 57.45 251.31 60.05 245.89 62.79 240.58 66.94 232.8 75.78 218.07 80.42 211.16 85.09 204.52 94.7 192.21 99.63 186.54 104.53 181.09 114.51 171 119.6 166.3 124.66 161.66 135.05 152.69 140.4 148.26 145.78 143.65 156.96 134.07 162.78 129.01 168.71 123.59 181.13 112 187.64 105.85 192.04 101.54 196.56 97.18 201.19 92.78 205.86 88.27 210.64 83.76 215.53 79.3 220.46 74.8 225.49 70.41 230.64 66.16 235.81 61.98 241.09 58.01 246.47 54.29 251.88 50.74 257.38 47.5 262.96 44.6 268.57 41.94 274.26 39.67 280.02 37.79 285.81 36.19 291.66 34.99 297.57 34.19 303.5 33.63 309.47 33.45 315.5 33.61 321.53 33.92 327.61 34.52 333.72 35.35 339.83 36.21 345.97 37.22 352.13 38.32 358.3 39.31 364.47 40.31 370.66 41.28 376.84 42.01 383.03 42.63 389.21 43.12" stroke-dasharray="8 4" transform="rotate(45.32, 400, 400)" opacity="0.58"></path><path d="M384.6 68.23C393.13 68.44 409.95 67.81 418.23 67.05 429.23 65.41 440.04 63.85 450.66 62.66 461.31 61.55 471.83 61.42 482.22 62.47 492.73 64.32 503.21 67.62 513.68 72.32 524.37 77.94 535.16 84.78 546.08 92.65 557.3 100.97 568.72 109.9 580.35 119.2 592.28 128.35 604.38 137.52 616.57 146.57 628.91 155.07 641.16 163.33 653.15 171.33 664.9 178.72 676.05 185.94 686.35 193.07 695.9 199.74 704.22 206.51 711.08 213.45 716.78 220.18 720.83 227.24 723.13 234.7 724.33 242.13 723.99 250.04 722.3 258.44 720.2 266.9 717.4 275.86 714.28 285.29 711.9 294.79 710.02 304.74 709.01 315.07 709.72 325.45 711.75 336.18 715.17 347.21 717.56 352.73 720.25 358.32 723.2 363.97 726.49 369.63 729.96 375.35 733.53 381.13 737.27 386.91 740.95 392.68 744.48 398.44 747.98 404.21 751.2 409.97 754.08 415.72 759.12 427.25 762.19 438.79 763.05 450.34 762.17 461.98 758.92 473.72 753.48 485.58 746.52 497.6 737.87 509.82 727.94 522.25 717.42 534.88 706.35 547.74 695.1 560.77 684.25 573.93 673.76 587.16 663.81 600.3 654.81 613.28 646.49 625.89 638.84 637.87 632.16 649.21 625.96 659.51 620.11 668.49 614.91 676.35 609.75 682.58 604.48 687.06 599.47 690.32 594.09 691.93 588.23 692.06 582.35 691.65 575.84 690.44 568.69 688.91 561.38 688.19 553.4 688.14 544.76 689.24 535.96 692.37 526.55 697.21 516.59 703.83 506.51 712.46 495.95 722.33 484.96 732.83 473.91 743.66 462.5 753.62 450.78 761.84 444.92 765.25 438.98 767.96 432.98 769.9 426.97 771.16 420.9 771.56 414.78 771.08 408.65 769.89 402.54 767.87 396.46 765.08 390.37 761.74 384.3 757.79 378.26 753.33 366.17 743.65 354.17 733.2 342.29 722.85 330.4 713.73 318.62 705.97 306.96 699.95 295.3 696.24 283.76 694.31 272.37 693.86 261 695.06 249.8 696.83 238.82 698.61 227.89 700.52 217.22 701.42 206.88 700.94 196.65 699.4 186.8 696.01 177.39 690.75 168.17 684.11 159.45 675.75 151.29 665.92 143.36 655.11 136.01 643.27 129.27 630.73 122.74 617.81 116.8 604.6 111.45 591.32 106.22 578.14 101.5 565.11 97.28 552.32 93.02 539.82 89.18 527.59 85.72 515.63 82.1 503.95 78.8 492.46 75.82 481.1 72.61 469.94 69.72 458.81 67.17 447.66 64.44 436.61 62.09 425.46 60.2 414.19 58.79 405.74 56.66 388.64 55.97 380 55.47 371.36 55.41 354.25 55.87 345.8 56.74 334.58 58.37 323.57 60.75 312.82 63.35 302.14 66.67 291.79 70.66 281.83 74.82 271.99 79.58 262.6 84.88 253.72 90.2 244.97 95.96 236.76 102.08 229.12 108.09 221.56 114.38 214.51 120.9 207.94 127.2 201.31 133.7 195.02 140.39 188.98 146.84 182.63 153.5 176.32 160.37 169.96 167.06 163.02 174.03 155.86 181.29 148.43 188.46 140.33 195.99 131.97 203.88 123.43 211.76 114.47 220.05 105.6 228.73 97.04 237.46 88.64 246.6 80.98 256.1 74.33 265.68 68.45 275.61 63.91 285.85 60.84 296.15 58.73 306.73 58.02 317.54 58.58 328.39 59.6 339.44 61.39 350.64 63.63 359.05 65.07 376.04 67.45 384.59 68.22" stroke-dasharray="2 4" transform="rotate(49.44, 400, 400)" opacity="0.54"></path><path d="M384.62 93.33C395.22 93.46 405.75 93.12 416.21 92.41 426.67 90.92 437.09 89.44 447.44 88.22 457.85 86.94 468.25 86.43 478.65 86.88 489.15 87.95 499.71 90.27 510.34 93.86 521.14 98.29 532.04 103.94 543.05 110.66 554.23 117.97 565.52 126.07 576.86 134.75 588.31 143.56 599.72 152.62 610.98 161.79 622.14 170.68 632.96 179.47 643.26 188.11 653.13 196.28 662.23 204.26 670.34 212.1 677.69 219.47 683.82 226.78 688.6 234.1 692.44 241.08 694.89 248.19 695.94 255.5 696.27 262.63 695.47 270.06 693.74 277.82 691.93 285.51 689.74 293.59 687.48 302.08 686.04 310.54 685.12 319.43 685 328.73 686.37 338.02 688.81 347.72 692.34 357.81 697.32 367.89 703.09 378.36 709.33 389.2 716.14 400.05 722.46 411.03 727.86 422.12 732.6 433.23 735.72 444.49 737.02 455.87 736.92 467.31 734.79 478.91 730.75 490.64 725.35 502.45 718.33 514.4 709.98 526.43 700.91 538.49 691.05 550.58 680.72 562.57 670.44 574.44 660.16 586.05 650.09 597.23 640.6 608 631.54 618.08 622.97 627.27 615.16 635.71 607.8 643.01 600.83 649 594.5 654.06 588.37 657.75 582.34 660.06 576.71 661.66 570.96 662.19 564.99 661.86 559.18 661.58 553 661.1 546.4 660.8 539.79 661.59 532.68 663.27 525.06 666.14 517.36 670.8 509.14 676.88 500.41 684.29 491.61 693.17 482.32 702.78 472.59 712.6 462.81 722.4 452.62 731.19 442.06 738.29 431.47 743.61 420.55 746.28 409.31 745.98 398.08 743.27 386.82 737.89 375.58 730.38 364.35 721.75 353.15 712.23 342.01 702.52 330.9 693.58 319.85 685.52 308.91 678.72 298.01 673.77 287.23 670.31 276.62 668.22 266.06 667.78 255.71 668.15 245.6 668.93 235.61 670.33 225.9 671.33 216.54 671.59 207.34 671.39 198.54 669.9 190.19 667 182.04 663.1 174.38 657.68 167.24 650.84 160.32 643.03 153.93 634.02 148.09 624.04 142.41 613.43 137.24 602.16 132.59 590.46 127.99 578.51 123.82 566.37 120.07 554.19 116.24 542.02 112.75 529.93 109.58 517.98 106.21 506.15 103.1 494.48 100.27 482.98 97.19 471.6 94.37 460.35 91.84 449.24 89.12 438.19 86.74 427.22 84.77 416.33 82.71 405.46 81.15 394.63 80.17 383.86 79.26 373.08 79.04 362.61 79.52 352.47 80.2 342.32 81.62 332.51 83.77 323.08 86.16 313.66 89.25 304.63 93.01 296.03 96.95 287.46 101.5 279.32 106.57 271.63 111.7 263.94 117.28 256.67 123.23 249.79 129.09 242.83 135.25 236.18 141.65 229.79 147.86 223.15 154.26 216.64 160.83 210.17 167.17 203.28 173.68 196.29 180.35 189.15 186.82 181.46 193.49 173.57 200.38 165.48 207.12 156.92 214.13 148.27 221.42 139.66 228.63 130.91 236.16 122.48 244.01 114.58 251.84 107.05 260.02 100.4 268.52 94.83 277.04 90.05 285.89 86.54 295.05 84.38 304.23 83.03 313.7 82.88 323.43 83.79 333.18 85.01 343.18 86.82 353.39 88.99 363.6 90.66 374.02 92.16 384.62 93.33" stroke-dasharray="4 3" transform="rotate(53.56, 400, 400)" opacity="0.51"></path><path d="M389.3 118.43C399.19 118.59 409.11 118.36 419.05 117.78 429 116.47 438.99 115.12 449 113.93 459.07 112.58 469.18 111.82 479.35 111.8 489.58 112.21 499.89 113.67 510.25 116.22 520.7 119.49 531.19 123.9 541.7 129.35 552.25 135.44 562.77 142.41 573.18 150.09 583.52 158.1 593.63 166.58 603.4 175.37 612.92 184.12 621.92 192.99 630.27 201.87 638.12 210.48 645.13 219.02 651.17 227.44 656.53 235.51 660.8 243.48 663.91 251.38 666.35 258.96 667.69 266.54 667.98 274.17 667.87 281.57 666.99 289.1 665.52 296.81 664.21 304.38 662.75 312.2 661.37 320.31 660.81 328.33 660.76 336.69 661.38 345.39 663.26 354.05 665.99 363.09 669.54 372.49 674.25 381.88 679.53 391.67 685.13 401.84 691.2 412.01 696.83 422.35 701.7 432.82 706.09 443.3 709.17 453.92 710.75 464.64 711.25 475.38 710.06 486.2 707.22 497.07 703.22 507.9 697.74 518.73 690.96 529.45 683.43 540.06 674.98 550.46 665.87 560.54 656.56 570.33 646.98 579.64 637.31 588.3 627.92 596.49 618.69 603.87 609.72 610.3 601.26 616.1 593.13 620.86 585.31 624.52 578.03 627.61 570.99 629.7 564.13 630.88 557.69 631.84 551.29 632.25 544.86 632.33 538.68 632.87 532.34 633.6 525.77 634.81 519.31 637.2 512.54 640.49 505.42 644.84 498.31 650.67 490.81 657.56 482.92 665.36 475 674.14 466.67 683.23 457.95 692.2 449.2 700.91 440.07 708.55 430.57 714.58 421.06 719.06 411.2 721.24 401.03 720.88 390.86 718.51 380.63 713.85 370.38 707.3 360.16 699.7 349.94 691.16 339.76 682.21 329.63 673.67 319.55 665.61 309.6 658.38 299.69 652.55 289.93 647.88 280.35 644.37 270.86 642.33 261.59 641.19 252.59 640.67 243.72 641.01 235.16 641.41 226.96 641.57 218.91 641.78 211.26 641.23 204.05 639.77 197.01 637.75 190.42 634.58 184.32 630.24 178.37 625.15 172.89 618.92 167.89 611.67 162.97 603.77 158.49 595.04 154.44 585.64 150.37 575.83 146.66 565.55 143.28 554.95 139.78 544.17 136.55 533.23 133.58 522.22 130.39 511.18 127.42 500.15 124.66 489.2 121.67 478.28 118.9 467.46 116.38 456.77 113.67 446.12 111.27 435.59 109.23 425.21 107.13 414.84 105.48 404.61 104.36 394.53 103.33 384.45 102.95 374.75 103.23 365.44 103.72 356.11 104.91 347.17 106.8 338.61 108.93 330.03 111.75 321.83 115.21 314 118.87 306.12 123.12 298.59 127.89 291.39 132.77 284.09 138.09 277.06 143.8 270.25 149.47 263.26 155.46 256.4 161.69 249.63 167.79 242.55 174.09 235.45 180.55 228.3 186.83 220.74 193.25 213.05 199.81 205.24 206.18 197.02 212.7 188.7 219.38 180.33 225.89 171.74 232.6 163.26 239.52 155.03 246.31 146.9 253.35 139.28 260.64 132.35 267.86 125.92 275.36 120.42 283.14 115.99 290.88 112.31 298.91 109.79 307.23 108.45 315.53 107.76 324.13 108.06 332.99 109.23 341.85 110.56 350.98 112.35 360.37 114.4 369.75 115.94 379.39 117.33 389.29 118.43" stroke-dasharray="6 10" transform="rotate(57.68000000000001, 400, 400)" opacity="0.47"></path><path d="M397.2 143.53C406.44 143.73 415.75 143.59 425.1 143.15 434.47 142.04 443.91 140.86 453.38 139.77 462.89 138.44 472.44 137.53 482.03 137.19 491.64 137.11 501.27 137.86 510.89 139.51 520.52 141.72 530.1 144.92 539.57 149.09 548.99 153.85 558.24 159.5 567.23 165.93 576.05 172.78 584.51 180.24 592.51 188.17 600.19 196.26 607.29 204.66 613.68 213.24 619.63 221.76 624.77 230.36 629.04 238.96 632.79 247.37 635.64 255.75 637.58 264.07 639.09 272.17 639.79 280.23 639.75 288.28 639.58 296.12 638.92 304 637.92 311.95 637.22 319.74 636.52 327.66 635.99 335.74 636.22 343.72 636.89 351.9 638.12 360.31 640.37 368.67 643.26 377.29 646.76 386.18 651.16 395.06 655.95 404.23 660.93 413.69 666.3 423.15 671.27 432.69 675.61 442.28 679.61 451.86 682.56 461.47 684.31 471.07 685.24 480.64 684.78 490.16 682.94 499.56 680.16 508.88 676.06 518 670.78 526.85 664.76 535.52 657.81 543.81 650.1 551.62 642.05 559.13 633.53 566.06 624.71 572.29 615.92 578.14 607.06 583.23 598.24 587.49 589.69 591.37 581.3 594.45 573.09 596.76 565.25 598.86 557.61 600.35 550.13 601.38 543.01 602.57 535.99 603.6 529.04 604.68 522.34 606.43 515.62 608.58 508.83 611.32 502.19 615.14 495.39 619.75 488.42 625.21 481.51 631.77 474.35 639.04 466.94 646.83 459.55 655.2 451.86 663.57 443.88 671.57 435.9 679.16 427.61 685.68 419.03 690.73 410.45 694.43 401.57 696.17 392.44 695.78 383.3 693.73 374.12 689.73 364.95 684.08 355.8 677.48 346.67 669.93 337.61 661.84 328.58 653.89 319.64 646.11 310.83 638.79 302.08 632.45 293.49 626.93 285.11 622.3 276.82 618.91 268.76 616.32 260.99 614.41 253.32 613.43 245.97 612.78 238.97 612.22 232.09 612.05 225.58 611.57 219.48 610.61 213.49 609.52 207.91 607.68 202.74 605.01 197.66 601.91 192.97 597.89 188.68 592.99 184.41 587.59 180.49 581.36 176.91 574.4 173.25 567.03 169.88 559.05 166.77 550.59 163.51 541.85 160.45 532.75 157.61 523.4 154.54 513.91 151.64 504.26 148.94 494.53 146 484.75 143.26 474.94 140.75 465.17 138.07 455.39 135.66 445.67 133.6 436.04 131.48 426.42 129.78 416.9 128.56 407.51 127.44 398.12 126.92 389.07 127.01 380.37 127.31 371.64 128.26 363.24 129.87 355.16 131.71 347.03 134.21 339.19 137.31 331.62 140.63 323.97 144.52 316.54 148.92 309.3 153.45 301.93 158.44 294.68 163.81 287.54 169.21 280.18 174.93 272.85 180.92 265.52 186.84 257.91 192.98 250.25 199.29 242.52 205.47 234.51 211.8 226.43 218.26 218.32 224.56 210 230.99 201.73 237.56 193.6 243.96 185.46 250.51 177.61 257.22 170.19 263.79 163.04 270.55 156.52 277.5 150.77 284.35 145.56 291.42 141.27 298.71 137.98 305.94 135.34 313.42 133.7 321.14 133.07 328.82 132.91 336.76 133.55 344.96 134.87 353.13 136.24 361.57 137.95 370.28 139.84 378.98 141.25 387.95 142.51 397.19 143.53" stroke-dasharray="3 0" transform="rotate(61.8, 400, 400)" opacity="0.43"></path><path d="M405.95 168.63C414.52 168.86 423.14 168.81 431.79 168.51 440.45 167.61 449.14 166.64 457.84 165.69 466.54 164.47 475.24 163.53 483.9 163.01 492.56 162.59 501.16 162.81 509.65 163.73 518.1 165.05 526.39 167.19 534.48 170.16 542.46 173.63 550.16 177.91 557.51 182.95 564.67 188.44 571.39 194.57 577.6 201.27 583.54 208.25 588.88 215.67 593.58 223.4 597.93 231.26 601.58 239.33 604.52 247.54 607.12 255.73 609.03 263.99 610.26 272.28 611.28 280.47 611.75 288.66 611.74 296.85 611.78 304.92 611.53 312.99 611.13 321.07 611.09 329.04 611.13 337.06 611.35 345.12 612.24 353.12 613.5 361.2 615.18 369.37 617.68 377.51 620.63 385.78 623.98 394.17 628.04 402.55 632.34 411.08 636.74 419.75 641.43 428.41 645.78 437.01 649.59 445.51 653.19 454.01 655.94 462.38 657.74 470.59 658.95 478.76 659.03 486.73 657.99 494.44 656.21 502.05 653.31 509.34 649.37 516.25 644.78 523 639.3 529.29 633.05 535.08 626.4 540.65 619.17 545.66 611.52 550.07 603.73 554.26 595.7 557.86 587.52 560.87 579.42 563.74 571.29 566.11 563.21 568.04 555.33 570.04 547.54 571.79 539.85 573.4 532.4 575.39 525.03 577.48 517.75 579.82 510.68 582.86 503.65 586.36 496.62 590.4 489.75 595.33 482.83 600.86 475.85 606.96 468.96 613.82 461.95 621.06 454.8 628.5 447.7 636.21 440.43 643.69 432.99 650.65 425.56 657.13 417.93 662.58 410.12 666.73 402.31 669.74 394.31 671.09 386.13 670.68 377.94 668.92 369.78 665.53 361.68 660.72 353.58 655.08 345.56 648.52 337.64 641.36 329.74 634.15 321.97 626.86 314.36 619.75 306.79 613.27 299.41 607.29 292.25 601.92 285.15 597.49 278.3 593.72 271.72 590.54 265.22 588.23 259.02 586.34 253.13 584.72 244.59 583.12 229.28 579.61 222.52 576.98 216.12 573.61 204.81 563.25 199.81 556.2 196.45 550.99 193.3 545.18 190.36 538.82 187.25 532.23 184.3 525.18 181.52 517.74 178.53 510.15 175.69 502.25 173.01 494.12 170.13 485.9 167.43 477.52 164.94 469.02 162.3 460.49 159.92 451.89 157.86 443.25 155.75 434.61 154.03 425.96 152.76 417.32 151.57 408.68 150.94 400.25 150.87 392.05 150.98 383.83 151.7 375.81 153.02 367.98 154.56 360.12 156.7 352.41 159.41 344.86 162.33 337.22 165.79 329.69 169.74 322.25 173.85 314.68 178.41 307.15 183.35 299.65 188.37 291.98 193.72 284.31 199.35 276.62 204.98 268.76 210.84 260.88 216.91 253.01 222.89 245 229.05 237.03 235.34 229.17 241.52 221.29 247.84 213.6 254.27 206.2 260.57 198.97 267.01 192.15 273.56 185.87 280 179.96 286.58 174.72 293.31 170.24 299.93 166.27 306.73 163.15 313.7 160.91 320.59 159.18 327.68 158.3 334.97 158.22 342.2 158.45 349.65 159.31 357.32 160.69 364.96 162.02 372.84 163.6 380.94 165.31 389.03 166.57 397.36 167.7 405.94 168.63" stroke-dasharray="8 7" transform="rotate(65.92, 400, 400)" opacity="0.39"></path><path d="M412.9 193.74C420.74 193.98 428.57 194.01 436.37 193.86 444.18 193.17 451.95 192.41 459.66 191.66 467.37 190.6 474.99 189.74 482.51 189.16 489.99 188.57 497.33 188.44 504.49 188.84 511.58 189.47 518.44 190.76 525.03 192.7 531.49 195.02 537.63 198.03 543.39 201.72 548.97 205.79 554.12 210.49 558.79 215.76 563.24 221.35 567.18 227.42 570.57 233.91 573.75 240.6 576.37 247.62 578.44 254.88 580.35 262.25 581.76 269.79 582.7 277.46 583.61 285.15 584.16 292.92 584.42 300.73 584.83 308.52 585.1 316.33 585.31 324.15 585.91 331.94 586.59 339.73 587.45 347.52 588.86 355.28 590.55 363.05 592.53 370.82 595.14 378.57 598.05 386.34 601.21 394.12 604.9 401.89 608.71 409.68 612.54 417.45 616.6 425.23 620.35 432.81 623.65 440.18 626.83 447.53 629.33 454.64 631.09 461.49 632.44 468.3 632.9 474.81 632.45 480.99 631.46 487.11 629.55 492.86 626.76 498.21 623.44 503.47 619.32 508.31 614.48 512.7 609.24 517 603.41 520.87 597.09 524.3 590.55 527.68 583.66 530.68 576.5 533.33 569.28 536.05 561.9 538.52 554.42 540.82 547.01 543.36 539.57 545.88 532.14 548.45 524.83 551.48 517.55 554.73 510.31 558.26 503.21 562.42 496.13 566.96 489.1 571.91 482.18 577.5 475.26 583.47 468.34 589.76 461.51 596.49 454.63 603.35 447.72 610.16 440.86 617.01 433.93 623.5 426.93 629.39 419.95 634.8 412.88 639.26 405.72 642.58 398.57 644.97 391.33 646 384 645.57 376.68 644.09 369.44 641.25 362.32 637.22 355.21 632.48 348.21 626.89 341.36 620.69 334.52 614.32 327.84 607.71 321.34 601.07 314.87 594.77 308.59 588.71 302.54 583.01 296.52 577.95 290.74 573.35 285.22 569.2 277.12 564.23 262.32 556.8 255.64 553.84 249.24 551.35 237.74 545.6 232.58 541.92 227.51 537.72 218.18 526.71 213.83 519.89 210.82 515.03 207.94 509.73 205.2 504.01 202.27 498.17 199.47 491.96 196.82 485.43 194.01 478.83 191.36 471.95 188.92 464.83 186.36 457.68 184.04 450.33 182.01 442.81 179.96 435.28 178.26 427.6 176.96 419.8 175.74 412 175.02 404.27 174.81 396.61 174.76 388.94 175.25 381.34 176.28 373.81 177.5 366.26 179.27 358.75 181.56 351.29 184.05 343.78 187.03 336.29 190.48 328.83 194.09 321.3 198.13 313.77 202.55 306.25 207.08 298.66 211.94 291.07 217.09 283.52 222.29 275.92 227.74 268.36 233.41 260.91 239.06 253.47 244.9 246.18 250.89 239.11 256.82 232.16 262.9 225.52 269.1 219.27 275.22 213.26 281.45 207.75 287.8 202.8 294.07 198.22 300.45 194.29 306.94 191.06 313.36 188.25 319.91 186.17 326.58 184.83 333.19 183.85 339.95 183.54 346.85 183.86 353.71 184.35 360.73 185.31 367.91 186.66 375.06 187.89 382.39 189.3 389.89 190.81 397.38 191.89 405.05 192.89 412.89 193.74" stroke-dasharray="5 5" transform="rotate(70.04, 400, 400)" opacity="0.35"></path><path d="M415.95 218.84C422.97 219.09 429.91 219.2 436.76 219.18 443.61 218.7 450.35 218.17 456.97 217.63 463.58 216.79 470.04 216.08 476.32 215.55 485.6 214.79 502.94 215.23 510.88 216.73 518.36 219.1 531.4 227.03 536.84 232.54 541.69 238.97 549.14 254.35 551.8 263.09 553.4 269.18 554.67 275.52 555.63 282.06 556.67 288.69 557.48 295.48 558.14 302.38 559 309.32 559.79 316.34 560.58 323.4 561.7 330.49 562.92 337.59 564.25 344.69 566.03 351.8 567.99 358.9 570.13 365.97 572.74 373.04 575.52 380.07 578.43 387.05 581.72 394.03 585.05 400.95 588.34 407.78 591.81 414.61 594.99 421.18 597.81 427.49 600.55 433.79 602.77 439.81 604.41 445.54 606.12 453.95 605.46 469.16 603.03 475.93 599.3 482.34 588.12 493.62 580.93 498.58 575.73 501.88 570.14 504.98 564.21 507.93 558.16 511.05 551.86 514.11 545.37 517.15 538.84 520.49 532.19 523.92 525.46 527.48 518.75 531.44 511.99 535.62 505.22 540.04 498.51 544.91 491.79 550.05 485.08 555.43 478.44 561.2 471.81 567.15 465.19 573.2 458.62 579.45 452.06 585.63 445.5 591.61 438.98 597.48 432.46 602.92 425.93 607.76 419.41 612.14 412.89 615.7 406.35 618.29 399.82 620.15 393.27 620.89 386.72 620.47 380.16 619.23 373.75 616.89 367.5 613.58 361.24 609.68 355.15 605.02 349.22 599.78 343.3 594.31 337.56 588.51 332.01 582.54 326.46 576.71 321.11 570.91 315.97 565.25 310.84 559.99 305.92 554.98 301.23 550.26 294.3 544.08 281.57 533.78 275.75 529.45 270.1 525.75 259.71 518.6 254.94 514.82 250.17 510.95 241.21 501.77 236.96 496.32 232.6 490.45 224.27 476.85 220.32 469.15 217.6 463.87 215.04 458.28 212.68 452.4 210.23 446.49 208.01 440.31 206.06 433.89 204.09 427.46 202.45 420.8 201.16 413.91 199.94 407.03 199.17 400.1 198.84 393.14 198.64 386.18 198.93 379.18 199.68 372.18 200.6 365.17 202 358.14 203.86 351.11 205.9 344.06 208.38 337.01 211.29 329.96 214.35 322.91 217.8 315.87 221.62 308.86 225.56 301.87 229.82 294.93 234.38 288.09 239.01 281.29 243.9 274.62 249.02 268.13 254.16 261.75 259.51 255.6 265.02 249.75 270.53 244.09 276.2 238.78 281.99 233.89 287.75 229.27 293.63 225.14 299.62 221.53 305.56 218.24 311.61 215.52 317.75 213.4 323.86 211.59 330.06 210.36 336.35 209.71 342.6 209.29 348.96 209.37 355.41 209.92 361.84 210.54 368.37 211.5 375 212.73 381.62 213.82 388.35 215.03 395.17 216.31 401.99 217.23 408.92 218.08 415.94 218.84" stroke-dasharray="3 4" transform="rotate(74.16, 400, 400)" opacity="0.32"></path><path d="M414.18 243.94C426.41 244.06 438.14 243.88 449.21 243.54 460.22 242.14 470.48 241.24 479.81 241.19 488.96 241.13 497.06 242.56 503.95 245.58 510.6 249.28 516.02 254.74 520.2 261.77 524.31 269.54 527.42 278.66 529.66 288.8 532.37 299.4 534.72 310.74 536.95 322.49 540.29 334.43 543.94 346.61 547.94 358.75 553.24 370.95 558.77 383.04 564.14 394.8 570.04 406.57 574.69 417.41 577.74 427.27 580.13 437.13 580.32 446.05 578.32 454.04 575.18 462.16 569.88 469.57 562.74 476.41 554.74 483.75 545.29 490.96 534.8 498.26 523.97 506.57 512.46 515.37 500.6 524.73 488.74 535.19 476.68 546.05 464.61 556.85 452.63 567.81 440.64 577.72 428.74 585.73 416.9 592.16 405.09 595.56 393.44 595.37 381.78 592.75 370.78 586.89 360.48 578.58 350.17 569.34 340.54 558.98 331.68 548.29 322.75 538.4 314.55 528.96 307.1 520.2 299.5 512.8 292.55 505.94 286.27 499.4 279.68 493.8 273.6 488 268.05 481.73 262.03 475.79 256.43 469 251.3 461.25 245.7 453.51 240.61 444.7 236.21 434.83 231.58 424.94 227.88 414.01 225.36 402.14 223.07 390.27 222.37 378.05 223.25 365.69 224.67 353.35 227.73 340.91 232.29 328.58 237.39 316.38 243.88 304.41 251.51 292.98 259.49 281.92 268.44 271.68 278.13 262.62 287.94 254.3 298.36 247.47 309.21 242.42 320.05 238.28 331.27 235.96 342.76 235.45 354.21 235.39 365.95 236.63 377.88 238.88 389.8 240.46 401.94 242.25 414.17 243.94" stroke-dasharray="2 5" transform="rotate(78.28, 400, 400)" opacity="0.28"></path><path d="M408.13 269.04C418.47 269.25 428.23 269.34 437.3 269.36 446.33 268.49 454.62 267.96 462.06 267.99 469.43 267.78 475.92 268.58 481.47 270.48 486.97 272.67 491.59 276.18 495.37 280.92 499.27 286.12 502.54 292.5 505.28 299.86 508.5 307.59 511.51 316.13 514.41 325.23 518.14 334.52 521.99 344.22 525.92 354.1 530.71 364.05 535.48 374.08 539.94 384.02 544.77 393.97 548.57 403.34 551.13 412.11 553.32 420.9 553.88 429.18 552.79 436.96 550.97 444.94 547.46 452.63 542.45 460.14 536.78 468.09 529.8 476.12 521.79 484.29 513.41 493.13 504.24 502.25 494.55 511.54 484.74 521.34 474.56 531.06 464.23 540.3 453.9 549.31 443.46 557.16 433.06 563.27 422.68 568.12 412.34 570.58 402.14 570.27 391.94 568.22 382.34 563.64 373.36 557.05 364.35 549.61 355.93 540.97 348.13 531.71 340.25 522.69 332.92 513.63 326.18 504.8 319.26 496.76 312.83 489.03 306.91 481.58 300.7 474.87 294.89 468.17 289.52 461.37 283.79 454.98 278.43 448.18 273.53 440.88 268.31 433.71 263.58 425.86 259.51 417.31 255.3 408.77 251.91 399.48 249.56 389.46 247.38 379.45 246.55 369.21 247.02 358.94 247.9 348.72 250.15 338.54 253.65 328.62 257.59 318.87 262.72 309.54 268.87 300.87 275.36 292.57 282.74 285.14 290.84 278.84 299.12 273.08 308 268.59 317.32 265.53 326.72 262.99 336.48 261.79 346.48 261.89 356.5 262.1 366.73 263.22 377.05 265.04 387.38 266.24 397.79 267.63 408.13 269.04" stroke-dasharray="6 2" transform="rotate(82.4, 400, 400)" opacity="0.24"></path><path d="M399.62 294.14C408.07 294.42 415.99 294.71 423.33 295.04 430.64 294.67 437.35 294.57 443.41 294.85 452.15 295.11 466.5 299.23 472.29 303.52 476.16 306.86 479.64 311.12 482.77 316.21 486.3 321.5 489.65 327.54 492.87 334.21 496.65 340.99 500.38 348.3 504.01 355.98 508.17 363.71 512.15 371.74 515.74 379.99 519.58 388.23 522.58 396.3 524.62 404.13 526.49 412 527.17 419.72 526.65 427.28 525.73 434.99 523.54 442.67 520.19 450.33 516.42 458.27 511.57 466.29 505.82 474.36 499.77 482.74 492.95 491.15 485.56 499.42 478.01 507.8 470.01 515.81 461.72 523.14 453.39 530.1 444.83 535.96 436.19 540.38 427.56 543.86 418.85 545.54 410.2 545.16 401.54 543.62 393.31 540.17 385.56 535.15 377.77 529.45 370.42 522.63 363.53 515.08 356.56 507.48 349.99 499.52 343.85 491.46 337.57 483.75 331.64 476.07 326.1 468.52 320.35 461.39 314.93 454.31 309.87 447.25 304.59 440.51 299.65 433.63 295.14 426.58 290.44 419.67 286.21 412.45 282.57 404.91 278.88 397.4 275.88 389.49 273.76 381.24 271.77 372.98 270.86 364.76 271.01 356.71 271.44 348.71 272.96 340.95 275.49 333.59 278.34 326.36 282.16 319.65 286.84 313.62 291.79 307.84 297.52 302.86 303.89 298.81 310.44 295.07 317.55 292.31 325.07 290.58 332.71 289.07 340.69 288.48 348.9 288.79 357.16 289 365.6 289.83 374.1 291.18 382.62 291.99 391.17 293.01 399.62 294.14" stroke-dasharray="11 7" transform="rotate(86.52, 400, 400)" opacity="0.20"></path><path d="M391.22 319.25C397.85 319.54 404.1 319.97 409.94 320.52 418.49 320.73 433.5 322.08 439.99 323.6 446.21 325.49 457.23 332.27 462.21 337.25 467.39 342.93 477.38 357.26 482.18 365.73 485.61 371.53 488.78 377.78 491.55 384.41 494.47 391.05 496.72 397.76 498.25 404.49 499.72 411.25 500.36 418.06 500.14 424.88 499.74 431.78 498.44 438.73 496.31 445.67 493.95 452.72 490.78 459.78 486.89 466.75 482.81 473.78 478.08 480.66 472.81 487.23 467.43 493.71 461.58 499.72 455.38 505.05 449.13 510.02 442.59 514.09 435.85 517.05 429.09 519.39 422.18 520.44 415.17 520.06 408.16 518.94 401.4 516.48 394.92 512.87 388.42 508.76 382.19 503.74 376.26 498.03 370.27 492.15 364.55 485.8 359.12 479.17 353.61 472.61 348.34 465.88 343.38 459.12 338.29 452.53 333.47 445.9 328.97 439.3 324.34 432.86 320.03 426.39 316.11 419.92 312.09 413.54 308.49 407.08 305.41 400.58 302.31 394.11 299.79 387.54 297.96 380.94 296.22 374.33 295.33 368 295.24 362 295.79 353.22 301.14 337.93 305.78 331.7 311.34 326.25 325.48 318.89 333.77 317.03 339.51 316.03 345.57 315.65 351.86 315.86 358.19 315.9 364.71 316.37 371.31 317.23 377.92 317.69 384.59 318.37 391.22 319.25" stroke-dasharray="5 5" transform="rotate(90.64, 400, 400)" opacity="0.16"></path><path d="M385.48 344.35C395.28 344.58 404.3 345.66 412.3 347.5 420.4 348.46 427.7 350.75 434.05 354.45 440.81 357.88 446.96 363.08 452.28 369.94 458.24 376.77 463.46 385.33 467.35 395.42 471.56 405.51 473.61 416.23 473.49 427.06 473.08 437.93 470.29 448.92 465.42 459.29 460.19 469.48 453.07 478.64 444.55 485.76 435.9 491.9 426.08 495.25 415.56 494.96 405.04 493.07 394.83 487.81 385.32 480.19 375.73 471.91 366.69 462.06 358.55 451.57 350.22 441.15 342.7 430.34 336.46 419.7 330.1 409.19 325.13 398.7 322.16 388.69 319.41 378.69 319.14 370.07 321.06 363.09 323.39 356.16 327.86 350.95 333.99 347.67 340.43 344.34 348.34 342.73 357.13 342.8 366.05 342.24 375.67 342.78 385.48 344.35" stroke-dasharray="6 6" transform="rotate(94.76, 400, 400)" opacity="0.13"></path><path d="M384.12 369.45C390.63 369.77 396.91 370.9 402.72 372.69 408.59 374.04 414.11 376.26 419.06 379.32 424.19 382.16 428.87 386.03 432.86 390.88 437.09 395.66 440.64 401.52 443.15 408.35 445.8 415.19 447.03 422.38 446.9 429.51 446.73 436.61 445.11 443.57 442.22 449.89 439.23 456 434.99 461.26 429.74 465.13 424.43 468.5 418.19 470.22 411.24 469.86 404.3 468.8 397.33 465.78 390.67 461.3 384 456.43 377.6 450.38 371.79 443.71 365.93 436.93 360.65 429.69 356.27 422.45 351.89 415.21 348.46 408 346.35 401.23 344.15 391.59 347.28 377.77 352.1 373.66 358.16 370.43 374.53 368.5 384.12 369.45" stroke-dasharray="1 4" transform="rotate(98.88, 400, 400)" opacity="0.09"></path></g></svg>