<svg xmlns="http://www.w3.org/2000/svg" version="1.1" xmlns:xlink="http://www.w3.org/1999/xlink" xmlns:svgjs="http://svgjs.dev/svgjs" viewBox="0 0 800 800" opacity="0.3"><g fill="none" stroke-width="3" stroke="#61dafb" stroke-linecap="round" stroke-dasharray="27 1" transform="matrix(1.1,0,0,1.1,-40.00000000000006,-40.00000152587893)"><line x1="66.5" y1="400" x2="733.5" y2="400" transform="rotate(0, 400, 400)" opacity="0.25"></line><line x1="662" y1="400" x2="138" y2="400" transform="rotate(3, 400, 400)" opacity="0.27"></line><line x1="409" y1="400" x2="391" y2="400" transform="rotate(6, 400, 400)" opacity="0.29"></line><line x1="248" y1="400" x2="552" y2="400" transform="rotate(9, 400, 400)" opacity="0.85"></line><line x1="235.5" y1="400" x2="564.5" y2="400" transform="rotate(12, 400, 400)" opacity="0.20"></line><line x1="531.5" y1="400" x2="268.5" y2="400" transform="rotate(15, 400, 400)" opacity="0.76"></line><line x1="657" y1="400" x2="143" y2="400" transform="rotate(18, 400, 400)" opacity="0.37"></line><line x1="189" y1="400" x2="611" y2="400" transform="rotate(21, 400, 400)" opacity="0.82"></line><line x1="536" y1="400" x2="264" y2="400" transform="rotate(24, 400, 400)" opacity="0.79"></line><line x1="632.5" y1="400" x2="167.5" y2="400" transform="rotate(27, 400, 400)" opacity="0.76"></line><line x1="154.5" y1="400" x2="645.5" y2="400" transform="rotate(30, 400, 400)" opacity="0.94"></line><line x1="362" y1="400" x2="438" y2="400" transform="rotate(33, 400, 400)" opacity="0.68"></line><line x1="351" y1="400" x2="449" y2="400" transform="rotate(36, 400, 400)" opacity="0.43"></line><line x1="607" y1="400" x2="193" y2="400" transform="rotate(39, 400, 400)" opacity="0.36"></line><line x1="88.5" y1="400" x2="711.5" y2="400" transform="rotate(42, 400, 400)" opacity="0.45"></line><line x1="495" y1="400" x2="305" y2="400" transform="rotate(45, 400, 400)" opacity="0.69"></line><line x1="68.5" y1="400" x2="731.5" y2="400" transform="rotate(48, 400, 400)" opacity="0.31"></line><line x1="497" y1="400" x2="303" y2="400" transform="rotate(51, 400, 400)" opacity="0.12"></line><line x1="495.5" y1="400" x2="304.5" y2="400" transform="rotate(54, 400, 400)" opacity="0.43"></line><line x1="207.5" y1="400" x2="592.5" y2="400" transform="rotate(57, 400, 400)" opacity="0.49"></line><line x1="106.5" y1="400" x2="693.5" y2="400" transform="rotate(60, 400, 400)" opacity="0.12"></line><line x1="100.5" y1="400" x2="699.5" y2="400" transform="rotate(63, 400, 400)" opacity="0.08"></line><line x1="151" y1="400" x2="649" y2="400" transform="rotate(66, 400, 400)" opacity="0.59"></line><line x1="411.5" y1="400" x2="388.5" y2="400" transform="rotate(69, 400, 400)" opacity="0.19"></line><line x1="697" y1="400" x2="103" y2="400" transform="rotate(72, 400, 400)" opacity="0.76"></line><line x1="248.5" y1="400" x2="551.5" y2="400" transform="rotate(75, 400, 400)" opacity="0.09"></line><line x1="312" y1="400" x2="488" y2="400" transform="rotate(78, 400, 400)" opacity="0.12"></line><line x1="109" y1="400" x2="691" y2="400" transform="rotate(81, 400, 400)" opacity="0.77"></line><line x1="573" y1="400" x2="227" y2="400" transform="rotate(84, 400, 400)" opacity="0.56"></line><line x1="305.5" y1="400" x2="494.5" y2="400" transform="rotate(87, 400, 400)" opacity="0.66"></line><line x1="394.5" y1="400" x2="405.5" y2="400" transform="rotate(90, 400, 400)" opacity="0.87"></line><line x1="360.5" y1="400" x2="439.5" y2="400" transform="rotate(93, 400, 400)" opacity="0.25"></line><line x1="565" y1="400" x2="235" y2="400" transform="rotate(96, 400, 400)" opacity="0.84"></line><line x1="304" y1="400" x2="496" y2="400" transform="rotate(99, 400, 400)" opacity="0.93"></line><line x1="460" y1="400" x2="340" y2="400" transform="rotate(102, 400, 400)" opacity="0.16"></line><line x1="71" y1="400" x2="729" y2="400" transform="rotate(105, 400, 400)" opacity="0.92"></line><line x1="66.5" y1="400" x2="733.5" y2="400" transform="rotate(108, 400, 400)" opacity="0.72"></line><line x1="336.5" y1="400" x2="463.5" y2="400" transform="rotate(111, 400, 400)" opacity="0.84"></line><line x1="570.5" y1="400" x2="229.5" y2="400" transform="rotate(114, 400, 400)" opacity="0.84"></line><line x1="499" y1="400" x2="301" y2="400" transform="rotate(117, 400, 400)" opacity="0.42"></line><line x1="541.5" y1="400" x2="258.5" y2="400" transform="rotate(120, 400, 400)" opacity="0.20"></line><line x1="322.5" y1="400" x2="477.5" y2="400" transform="rotate(123, 400, 400)" opacity="0.57"></line><line x1="489" y1="400" x2="311" y2="400" transform="rotate(126, 400, 400)" opacity="0.46"></line><line x1="235.5" y1="400" x2="564.5" y2="400" transform="rotate(129, 400, 400)" opacity="0.90"></line><line x1="109" y1="400" x2="691" y2="400" transform="rotate(132, 400, 400)" opacity="0.29"></line><line x1="609" y1="400" x2="191" y2="400" transform="rotate(135, 400, 400)" opacity="0.53"></line><line x1="372" y1="400" x2="428" y2="400" transform="rotate(138, 400, 400)" opacity="0.28"></line><line x1="552" y1="400" x2="248" y2="400" transform="rotate(141, 400, 400)" opacity="0.33"></line><line x1="679" y1="400" x2="121" y2="400" transform="rotate(144, 400, 400)" opacity="1.00"></line><line x1="362" y1="400" x2="438" y2="400" transform="rotate(147, 400, 400)" opacity="0.20"></line><line x1="463" y1="400" x2="337" y2="400" transform="rotate(150, 400, 400)" opacity="0.58"></line><line x1="610" y1="400" x2="190" y2="400" transform="rotate(153, 400, 400)" opacity="0.27"></line><line x1="460.5" y1="400" x2="339.5" y2="400" transform="rotate(156, 400, 400)" opacity="0.99"></line><line x1="70.5" y1="400" x2="729.5" y2="400" transform="rotate(159, 400, 400)" opacity="0.18"></line><line x1="261.5" y1="400" x2="538.5" y2="400" transform="rotate(162, 400, 400)" opacity="0.76"></line><line x1="296" y1="400" x2="504" y2="400" transform="rotate(165, 400, 400)" opacity="0.44"></line><line x1="65.5" y1="400" x2="734.5" y2="400" transform="rotate(168, 400, 400)" opacity="0.40"></line><line x1="584" y1="400" x2="216" y2="400" transform="rotate(171, 400, 400)" opacity="0.83"></line><line x1="338" y1="400" x2="462" y2="400" transform="rotate(174, 400, 400)" opacity="0.22"></line><line x1="87" y1="400" x2="713" y2="400" transform="rotate(177, 400, 400)" opacity="0.50"></line><line x1="509" y1="400" x2="291" y2="400" transform="rotate(180, 400, 400)" opacity="0.41"></line><line x1="347.5" y1="400" x2="452.5" y2="400" transform="rotate(183, 400, 400)" opacity="0.98"></line><line x1="400" y1="400" x2="400" y2="400" transform="rotate(186, 400, 400)" opacity="0.48"></line><line x1="437" y1="400" x2="363" y2="400" transform="rotate(189, 400, 400)" opacity="0.84"></line><line x1="76.5" y1="400" x2="723.5" y2="400" transform="rotate(192, 400, 400)" opacity="0.48"></line><line x1="599" y1="400" x2="201" y2="400" transform="rotate(195, 400, 400)" opacity="0.23"></line><line x1="519.5" y1="400" x2="280.5" y2="400" transform="rotate(198, 400, 400)" opacity="0.66"></line><line x1="658" y1="400" x2="142" y2="400" transform="rotate(201, 400, 400)" opacity="0.08"></line><line x1="184.5" y1="400" x2="615.5" y2="400" transform="rotate(204, 400, 400)" opacity="0.39"></line><line x1="218" y1="400" x2="582" y2="400" transform="rotate(207, 400, 400)" opacity="0.71"></line><line x1="279.5" y1="400" x2="520.5" y2="400" transform="rotate(210, 400, 400)" opacity="0.70"></line><line x1="291.5" y1="400" x2="508.5" y2="400" transform="rotate(213, 400, 400)" opacity="0.10"></line><line x1="590" y1="400" x2="210" y2="400" transform="rotate(216, 400, 400)" opacity="0.91"></line><line x1="339.5" y1="400" x2="460.5" y2="400" transform="rotate(219, 400, 400)" opacity="0.44"></line><line x1="401.5" y1="400" x2="398.5" y2="400" transform="rotate(222, 400, 400)" opacity="0.50"></line><line x1="194" y1="400" x2="606" y2="400" transform="rotate(225, 400, 400)" opacity="0.62"></line><line x1="245.5" y1="400" x2="554.5" y2="400" transform="rotate(228, 400, 400)" opacity="0.17"></line><line x1="397" y1="400" x2="403" y2="400" transform="rotate(231, 400, 400)" opacity="0.73"></line><line x1="176.5" y1="400" x2="623.5" y2="400" transform="rotate(234, 400, 400)" opacity="0.76"></line><line x1="126" y1="400" x2="674" y2="400" transform="rotate(237, 400, 400)" opacity="0.77"></line><line x1="206" y1="400" x2="594" y2="400" transform="rotate(240, 400, 400)" opacity="0.29"></line><line x1="566" y1="400" x2="234" y2="400" transform="rotate(243, 400, 400)" opacity="0.21"></line><line x1="516" y1="400" x2="284" y2="400" transform="rotate(246, 400, 400)" opacity="0.08"></line><line x1="356.5" y1="400" x2="443.5" y2="400" transform="rotate(249, 400, 400)" opacity="0.51"></line><line x1="397" y1="400" x2="403" y2="400" transform="rotate(252, 400, 400)" opacity="0.32"></line><line x1="668.5" y1="400" x2="131.5" y2="400" transform="rotate(255, 400, 400)" opacity="0.93"></line><line x1="499" y1="400" x2="301" y2="400" transform="rotate(258, 400, 400)" opacity="0.81"></line><line x1="527.5" y1="400" x2="272.5" y2="400" transform="rotate(261, 400, 400)" opacity="1.00"></line><line x1="381.5" y1="400" x2="418.5" y2="400" transform="rotate(264, 400, 400)" opacity="0.57"></line><line x1="209" y1="400" x2="591" y2="400" transform="rotate(267, 400, 400)" opacity="0.90"></line><line x1="349" y1="400" x2="451" y2="400" transform="rotate(270, 400, 400)" opacity="0.09"></line><line x1="408.5" y1="400" x2="391.5" y2="400" transform="rotate(273, 400, 400)" opacity="0.50"></line><line x1="396" y1="400" x2="404" y2="400" transform="rotate(276, 400, 400)" opacity="0.56"></line><line x1="355" y1="400" x2="445" y2="400" transform="rotate(279, 400, 400)" opacity="0.33"></line><line x1="236.5" y1="400" x2="563.5" y2="400" transform="rotate(282, 400, 400)" opacity="0.43"></line><line x1="224.5" y1="400" x2="575.5" y2="400" transform="rotate(285, 400, 400)" opacity="0.92"></line><line x1="541.5" y1="400" x2="258.5" y2="400" transform="rotate(288, 400, 400)" opacity="0.51"></line><line x1="646" y1="400" x2="154" y2="400" transform="rotate(291, 400, 400)" opacity="0.57"></line><line x1="476" y1="400" x2="324" y2="400" transform="rotate(294, 400, 400)" opacity="0.35"></line><line x1="227" y1="400" x2="573" y2="400" transform="rotate(297, 400, 400)" opacity="0.65"></line><line x1="611" y1="400" x2="189" y2="400" transform="rotate(300, 400, 400)" opacity="0.26"></line><line x1="177.5" y1="400" x2="622.5" y2="400" transform="rotate(303, 400, 400)" opacity="0.41"></line><line x1="615.5" y1="400" x2="184.5" y2="400" transform="rotate(306, 400, 400)" opacity="0.57"></line><line x1="272" y1="400" x2="528" y2="400" transform="rotate(309, 400, 400)" opacity="0.47"></line></g></svg>